<svg width="617" height="623" viewBox="0 0 617 623" fill="none" xmlns="http://www.w3.org/2000/svg">
<g filter="url(#filter0_d_4091_1989)">
<rect x="10" width="576.316" height="582.853" rx="24" fill="white"/>
<path fill-rule="evenodd" clip-rule="evenodd" d="M167.707 173.201C174.78 156.325 186.85 141.66 201.122 130.647C174.654 148.762 154.756 179.932 158.396 213.627C160.023 230.789 166.521 255.801 183.363 263.384C188.09 265.483 193.941 265.575 198.686 263.439C205.476 260.374 210.759 255 215.941 249.73C217.433 248.213 218.917 246.703 220.426 245.26C240.333 224.501 262.864 215.967 291.066 219.212C312.564 221.792 333.837 230.151 350.868 243.966C357.752 249.837 366.82 258.844 365.939 268.497C365.705 270.106 365.085 271.428 364.106 272.778C362.256 275.278 359.235 277.741 356.133 280.271C355.724 280.604 355.313 280.94 354.903 281.276C351.335 284.18 347.704 287.249 344.316 290.615C330.664 303.986 321.246 321.407 315.53 339.697C313.734 345.117 312.447 350.769 311.17 356.381L311.17 356.382C310.133 360.936 309.102 365.465 307.81 369.823C307.748 369.978 307.69 370.129 307.634 370.274C307.472 370.692 307.327 371.069 307.17 371.405C307.022 371.165 306.867 370.891 306.722 370.599C305.046 366.588 303.665 362.478 302.282 358.36C299.615 350.421 296.937 342.449 292.109 335.083C287.534 327.732 281.117 321.203 273.523 317.098C271.33 315.887 268.895 314.869 266.504 314.157C259.505 311.9 251.674 312.566 244.509 313.175L244.481 313.177L244.474 313.178C243.49 313.262 242.519 313.344 241.564 313.418C230.69 314.426 219.941 313.445 209.516 310.228C167.896 297.116 137.627 261.645 141.473 215.301C144.232 178.702 164.75 143.842 195.28 124.591C178.429 134.198 163.968 148.262 153.804 165.184C144.978 180.33 138.975 197.251 137.079 214.885C132.531 255.247 153.606 290.597 188.072 309.035C196.296 313.51 205.013 317.264 214.108 319.419C223.221 321.758 232.928 322.193 242.095 321.509C243.271 321.436 244.445 321.35 245.616 321.264C252.979 320.722 260.206 320.19 266.944 323.238C283.059 330.339 290.195 348.074 295.129 364.33C295.503 365.384 295.844 366.448 296.184 367.508L296.184 367.509C297.464 371.506 298.732 375.463 301.779 378.773C304.934 382.111 310.425 381.806 313.301 378.145C315.476 375.352 316.464 371.866 317.156 369.258C317.888 366.47 318.501 363.764 319.105 361.103L319.105 361.102C319.523 359.255 319.937 357.429 320.383 355.61C325.389 333.936 334.735 312.77 350.472 297.208C353.564 294.111 356.898 291.263 360.394 288.396C360.911 287.965 361.439 287.532 361.972 287.095L361.973 287.094C367.472 282.581 373.553 277.591 374.585 269.819C376.086 256.181 365.643 244.974 356.251 237.068C337.764 222.31 315.035 213.711 291.866 211.186C268.248 208.532 244.225 214.681 226.052 230.872C221.374 234.826 217.092 239.282 212.848 243.697L212.847 243.698C210.7 245.932 208.562 248.156 206.388 250.3L206.308 250.375C201.698 254.705 197.122 259.002 190.948 259.195C176.02 258.807 168.282 239.305 164.849 226.554C160.059 208.995 160.499 190.03 167.707 173.201ZM306.631 372.298C306.622 372.305 306.614 372.314 306.605 372.328C306.614 372.318 306.622 372.308 306.631 372.298Z" fill="#29452F"/>
<path d="M249.662 255.561C257.553 242.042 277.963 240.748 285.189 255.561C273.011 246.795 262.082 248.302 249.662 255.561Z" fill="#29452F"/>
<path d="M378.934 270.873L379.002 270.866C396.403 273.593 416.627 271.25 432.31 258.824C440.169 252.129 449.1 243.079 449.226 232.582C448.66 216.408 426.32 213.337 413.061 213.716C406.951 214.103 400.654 215.538 394.822 218.183C384.255 222.944 375.172 231.219 368.798 240.997C369.096 240.716 369.391 240.435 369.686 240.154C370.773 239.119 371.85 238.092 372.986 237.137C377.133 233.465 381.746 230.15 386.489 227.526C390.353 225.429 394.504 223.639 398.645 222.567C403.112 221.274 407.751 220.85 412.221 220.85C420.907 221.27 435.709 223.356 440.089 230.703C443.484 237.075 435.758 245.601 430.874 250.758C416.872 265.216 397.048 269.071 379.002 270.866L378.931 270.855L378.934 270.873Z" fill="#29452F"/>
<path d="M360.636 319.346L360.566 319.301L360.576 319.282L360.636 319.346Z" fill="#29452F"/>
<path d="M360.636 319.346C379.357 331.297 401.302 342.65 425.407 339.601C433.899 338.431 447.601 336.232 448.998 327.656C450.16 317.415 437.414 304.256 429.345 297.294C425.034 293.914 420.248 290.806 414.992 288.648C410.212 286.528 404.897 285.078 399.633 284.134C393.135 283.023 386.255 282.661 379.563 282.988C377.768 283.031 375.976 283.184 374.169 283.339C373.678 283.381 373.187 283.423 372.694 283.463C386.01 279.06 400.838 278.123 414.52 281.624C422.084 283.538 429.209 286.946 435.386 291.201C448.451 300.868 467.745 320.655 456.432 336.336C448.615 346.14 433.366 347.922 420.877 348.294C396.642 348.155 375.418 335.074 360.636 319.346Z" fill="#29452F"/>
<path d="M329.654 350.01L329.678 350.091C330.88 371.936 338.638 396.108 356.894 412.508C366.585 420.623 379.258 429.527 391.403 427.362C409.925 423.098 407.887 395.147 404.136 379.045C402.162 371.671 398.933 364.301 394.423 357.766C386.29 345.917 374.47 336.656 361.595 331.036C361.992 331.336 362.39 331.634 362.787 331.931L362.79 331.933C364.256 333.032 365.709 334.12 367.096 335.295C372.369 339.547 377.347 344.447 381.561 349.657C384.945 353.911 388.048 358.582 390.32 363.401C392.928 368.568 394.577 374.138 395.693 379.596C397.38 390.291 398.671 408.822 391.288 415.793C384.784 421.345 373.015 413.797 365.844 408.973C345.661 395.073 336.26 371.724 329.678 350.091L329.673 350.002L329.654 350.01Z" fill="#29452F"/>
<path d="M287.931 361.871C287.941 361.845 287.95 361.82 287.959 361.794L287.979 361.8C287.963 361.824 287.947 361.847 287.931 361.871Z" fill="#29452F"/>
<path d="M281.77 427.853C274.161 405.498 280.449 382.21 287.931 361.871C276.139 379.239 268.093 402.2 272.745 425.341C275.558 437.174 280.234 451.345 290.946 456.762C307.846 464.29 322.545 441.776 329.007 427.305C331.768 420.53 333.549 413.026 333.847 405.415C334.421 391.638 330.618 377.692 323.872 365.909C324.007 366.371 324.143 366.831 324.279 367.29C324.781 368.981 325.277 370.657 325.672 372.361C327.298 378.675 328.317 385.311 328.561 391.74C328.717 396.956 328.41 402.326 327.37 407.326C326.389 412.787 324.427 417.997 322.116 422.811C317.197 431.954 307.405 446.846 297.598 447.868C289.301 448.318 284.54 435.708 281.77 427.853Z" fill="#29452F"/>
<path d="M379.002 270.866L378.934 270.873L378.931 270.855L379.002 270.866ZM379.002 270.866C396.403 273.593 416.627 271.25 432.31 258.824C440.169 252.129 449.1 243.079 449.226 232.582C448.66 216.408 426.32 213.337 413.061 213.716C406.951 214.103 400.654 215.538 394.822 218.183C384.255 222.944 375.172 231.219 368.798 240.997C369.096 240.716 369.391 240.435 369.686 240.154C370.773 239.119 371.85 238.092 372.986 237.137C377.133 233.465 381.746 230.15 386.489 227.526C390.353 225.429 394.504 223.639 398.645 222.567C403.112 221.274 407.751 220.85 412.221 220.85C420.907 221.27 435.709 223.356 440.089 230.703C443.484 237.075 435.758 245.601 430.874 250.758C416.872 265.216 397.048 269.071 379.002 270.866ZM360.636 319.346L360.566 319.301L360.576 319.282L360.636 319.346ZM360.636 319.346C379.357 331.297 401.302 342.65 425.407 339.601C433.899 338.431 447.601 336.232 448.998 327.656C450.16 317.415 437.414 304.256 429.345 297.294C425.034 293.914 420.248 290.806 414.992 288.648C410.212 286.528 404.897 285.078 399.633 284.134C393.135 283.023 386.255 282.661 379.563 282.988C377.768 283.031 375.976 283.184 374.169 283.339C373.678 283.381 373.187 283.423 372.694 283.463C386.01 279.06 400.838 278.123 414.52 281.624C422.084 283.538 429.209 286.946 435.386 291.201C448.451 300.868 467.745 320.655 456.432 336.336C448.615 346.14 433.366 347.922 420.877 348.294C396.642 348.155 375.418 335.074 360.636 319.346ZM329.678 350.091L329.654 350.01L329.673 350.002L329.678 350.091ZM329.678 350.091C330.88 371.936 338.638 396.108 356.894 412.508C366.585 420.623 379.258 429.527 391.403 427.362C409.925 423.098 407.887 395.147 404.136 379.045C402.162 371.671 398.933 364.301 394.423 357.766C386.29 345.917 374.47 336.656 361.595 331.036C361.992 331.336 362.39 331.634 362.787 331.931L362.79 331.933C364.256 333.032 365.709 334.12 367.096 335.295C372.369 339.547 377.347 344.447 381.561 349.657C384.945 353.911 388.048 358.582 390.32 363.401C392.928 368.568 394.577 374.138 395.693 379.596C397.38 390.291 398.671 408.822 391.288 415.793C384.784 421.345 373.015 413.797 365.844 408.973C345.661 395.073 336.26 371.724 329.678 350.091ZM287.931 361.871C287.941 361.845 287.95 361.82 287.959 361.794L287.979 361.8C287.963 361.824 287.947 361.847 287.931 361.871ZM287.931 361.871C280.449 382.21 274.161 405.498 281.77 427.853C284.54 435.708 289.301 448.318 297.598 447.868C307.405 446.846 317.197 431.954 322.116 422.811C324.427 417.997 326.389 412.787 327.37 407.326C328.41 402.326 328.717 396.956 328.561 391.74C328.317 385.311 327.298 378.675 325.672 372.361C325.277 370.657 324.781 368.981 324.279 367.29C324.143 366.831 324.007 366.371 323.872 365.909C330.618 377.692 334.421 391.638 333.847 405.415C333.549 413.026 331.768 420.53 329.007 427.305C322.545 441.776 307.846 464.29 290.946 456.762C280.234 451.345 275.558 437.174 272.745 425.341C268.093 402.2 276.139 379.239 287.931 361.871ZM201.122 130.647C186.85 141.66 174.78 156.325 167.707 173.201C160.499 190.03 160.059 208.995 164.849 226.554C168.282 239.305 176.02 258.807 190.948 259.195C197.122 259.002 201.698 254.705 206.308 250.375L206.388 250.3C208.562 248.156 210.7 245.932 212.847 243.698L212.848 243.697C217.092 239.282 221.374 234.826 226.052 230.872C244.225 214.681 268.248 208.532 291.866 211.186C315.035 213.711 337.764 222.31 356.251 237.068C365.643 244.974 376.086 256.181 374.585 269.819C373.553 277.591 367.472 282.581 361.973 287.094L361.972 287.095C361.439 287.532 360.911 287.965 360.394 288.396C356.898 291.263 353.564 294.111 350.472 297.208C334.735 312.77 325.389 333.936 320.383 355.61C319.937 357.429 319.523 359.255 319.105 361.102L319.105 361.103C318.501 363.764 317.888 366.47 317.156 369.258C316.464 371.866 315.476 375.352 313.301 378.145C310.425 381.806 304.934 382.111 301.779 378.773C298.732 375.463 297.464 371.506 296.184 367.509L296.184 367.508C295.844 366.448 295.503 365.384 295.129 364.33C290.195 348.074 283.059 330.339 266.944 323.238C260.206 320.19 252.979 320.722 245.616 321.264C244.445 321.35 243.271 321.436 242.095 321.509C232.928 322.193 223.221 321.758 214.108 319.419C205.013 317.264 196.296 313.51 188.072 309.035C153.606 290.597 132.531 255.247 137.079 214.885C138.975 197.251 144.978 180.33 153.804 165.184C163.968 148.262 178.429 134.198 195.28 124.591C164.75 143.842 144.232 178.702 141.473 215.301C137.627 261.645 167.896 297.116 209.516 310.228C219.941 313.445 230.69 314.426 241.564 313.418C242.519 313.344 243.49 313.262 244.474 313.178L244.481 313.177L244.509 313.175C251.674 312.566 259.505 311.9 266.504 314.157C268.895 314.869 271.33 315.887 273.523 317.098C281.117 321.203 287.534 327.732 292.109 335.083C296.937 342.449 299.615 350.421 302.282 358.36C303.665 362.478 305.046 366.588 306.722 370.599C306.867 370.891 307.022 371.165 307.17 371.405C307.327 371.069 307.472 370.692 307.634 370.274C307.69 370.129 307.748 369.978 307.81 369.823C309.102 365.465 310.133 360.936 311.17 356.382L311.17 356.381C312.447 350.769 313.734 345.117 315.53 339.697C321.246 321.407 330.664 303.986 344.316 290.615C347.704 287.249 351.335 284.18 354.903 281.276C355.313 280.94 355.724 280.604 356.133 280.271C359.235 277.741 362.256 275.278 364.106 272.778C365.085 271.428 365.705 270.106 365.939 268.497C366.82 258.844 357.752 249.837 350.868 243.966C333.837 230.151 312.564 221.792 291.066 219.212C262.864 215.967 240.333 224.501 220.426 245.26C218.917 246.703 217.433 248.213 215.941 249.73C210.759 255 205.476 260.374 198.686 263.439C193.941 265.575 188.09 265.483 183.363 263.384C166.521 255.801 160.023 230.789 158.396 213.627C154.756 179.932 174.654 148.762 201.122 130.647ZM306.631 372.298C306.622 372.305 306.614 372.314 306.605 372.328C306.614 372.318 306.622 372.308 306.631 372.298ZM249.662 255.561C257.553 242.042 277.963 240.748 285.189 255.561C273.011 246.795 262.082 248.302 249.662 255.561Z" stroke="#29452F" stroke-width="1.56129"/>
</g>
<defs>
<filter id="filter0_d_4091_1989" x="0" y="0" width="616.315" height="622.853" filterUnits="userSpaceOnUse" color-interpolation-filters="sRGB">
<feFlood flood-opacity="0" result="BackgroundImageFix"/>
<feColorMatrix in="SourceAlpha" type="matrix" values="0 0 0 0 0 0 0 0 0 0 0 0 0 0 0 0 0 0 127 0" result="hardAlpha"/>
<feMorphology radius="10" operator="dilate" in="SourceAlpha" result="effect1_dropShadow_4091_1989"/>
<feOffset dx="10" dy="20"/>
<feGaussianBlur stdDeviation="5"/>
<feComposite in2="hardAlpha" operator="out"/>
<feColorMatrix type="matrix" values="0 0 0 0 0 0 0 0 0 0 0 0 0 0 0 0 0 0 0.25 0"/>
<feBlend mode="normal" in2="BackgroundImageFix" result="effect1_dropShadow_4091_1989"/>
<feBlend mode="normal" in="SourceGraphic" in2="effect1_dropShadow_4091_1989" result="shape"/>
</filter>
</defs>
</svg>
