<svg width="230" height="180" viewBox="0 0 230 180" fill="none" xmlns="http://www.w3.org/2000/svg">
<g clip-path="url(#clip0_3997_4043)">
<path fill-rule="evenodd" clip-rule="evenodd" d="M74.9184 15.7202C77.0856 10.5409 80.7839 6.0399 85.1568 2.65989C77.047 8.21944 70.9504 17.7862 72.0657 28.1277C72.5639 33.395 74.555 41.0716 79.7156 43.3987C81.1638 44.0431 82.9566 44.0713 84.4105 43.4158C86.4909 42.4749 88.1097 40.8259 89.6976 39.2083C90.1547 38.7425 90.6094 38.2793 91.0718 37.8363C97.1714 31.4651 104.075 28.8457 112.716 29.8419C119.303 30.6336 125.821 33.1992 131.039 37.4391C133.149 39.2411 135.927 42.0053 135.657 44.9681C135.586 45.462 135.396 45.8679 135.096 46.2822C134.529 47.0493 133.603 47.8055 132.653 48.5817C132.527 48.6841 132.402 48.787 132.276 48.8902C131.183 49.7812 130.07 50.7236 129.032 51.7565C124.849 55.8603 121.963 61.207 120.212 66.8205C119.662 68.4841 119.267 70.2187 118.876 71.9411C118.558 73.3389 118.242 74.7288 117.846 76.0664C117.828 76.1143 117.81 76.1604 117.793 76.2053C117.743 76.3335 117.698 76.4493 117.65 76.5521C117.605 76.4785 117.558 76.3945 117.513 76.305C117 75.0737 116.577 73.8125 116.153 72.5485C115.336 70.1121 114.515 67.6652 113.036 65.4043C111.634 63.1481 109.668 61.1445 107.341 59.8845C106.669 59.5126 105.923 59.2005 105.19 58.9821C103.046 58.2893 100.646 58.4936 98.4509 58.6806C98.1457 58.7064 97.8447 58.7321 97.5487 58.755C94.2165 59.0644 90.923 58.7634 87.7288 57.7759C74.9763 53.7517 65.7017 42.8651 66.8804 28.6414C67.7257 17.4088 74.0124 6.70964 83.367 0.801025C78.2037 3.74966 73.7728 8.06619 70.6583 13.2597C67.9541 17.9082 66.1148 23.1017 65.5336 28.5137C64.1403 40.9012 70.5979 51.7508 81.1584 57.4097C83.6781 58.7832 86.3491 59.9356 89.1359 60.5969C91.9282 61.3149 94.9022 61.4483 97.711 61.2383C98.0714 61.216 98.4313 61.1894 98.79 61.1629C101.046 60.9968 103.26 60.8334 105.325 61.7688C110.263 63.9484 112.449 69.3916 113.961 74.3807C114.076 74.7045 114.18 75.0308 114.284 75.3564C114.677 76.5831 115.065 77.7978 115.999 78.8136C116.965 79.838 118.648 79.7445 119.529 78.6207C120.195 77.7635 120.498 76.6937 120.71 75.8934C120.935 75.0373 121.123 74.2069 121.307 73.39C121.436 72.823 121.562 72.2626 121.699 71.7045C123.233 65.0525 126.096 58.5564 130.918 53.7799C131.866 52.8293 132.887 51.9551 133.958 51.0755C134.117 50.9431 134.279 50.8102 134.442 50.6758C136.127 49.2906 137.99 47.7591 138.307 45.374C138.767 41.1881 135.567 37.7483 132.689 35.322C127.025 30.7925 120.06 28.1532 112.961 27.3784C105.725 26.564 98.3638 28.4512 92.7958 33.4206C91.3621 34.6342 90.05 36.0016 88.7496 37.3568C88.0917 38.0426 87.4367 38.7251 86.7704 39.3831L86.7459 39.4062C85.3333 40.7351 83.9313 42.0539 82.0395 42.1131C77.4656 41.9939 75.0946 36.0088 74.0426 32.0951C72.5751 26.7058 72.71 20.8852 74.9184 15.7202ZM117.485 76.8264C117.483 76.8283 117.48 76.8311 117.477 76.8355C117.48 76.8326 117.483 76.8293 117.485 76.8264Z" fill="#29452F"/>
<path d="M100.03 40.998C102.448 36.8488 108.701 36.4514 110.915 40.998C107.184 38.3074 103.835 38.77 100.03 40.998Z" fill="#29452F"/>
<path fill-rule="evenodd" clip-rule="evenodd" d="M74.9184 15.7202C77.0856 10.5409 80.7839 6.0399 85.1568 2.65989C77.047 8.21944 70.9504 17.7862 72.0657 28.1277C72.5639 33.395 74.555 41.0716 79.7156 43.3987C81.1638 44.0431 82.9566 44.0713 84.4105 43.4158C86.4909 42.4749 88.1097 40.8259 89.6976 39.2083C90.1547 38.7425 90.6094 38.2793 91.0718 37.8363C97.1714 31.4651 104.075 28.8457 112.716 29.8419C119.303 30.6336 125.821 33.1992 131.039 37.4391C133.149 39.2411 135.927 42.0053 135.657 44.9681C135.586 45.462 135.396 45.8679 135.096 46.2821C134.529 47.0493 133.603 47.8055 132.653 48.5817C132.527 48.6841 132.402 48.787 132.276 48.8902C131.183 49.7812 130.07 50.7236 129.032 51.7565C124.849 55.8603 121.963 61.207 120.212 66.8205C119.662 68.4841 119.267 70.2187 118.876 71.9411C118.558 73.3389 118.242 74.7288 117.846 76.0664C117.828 76.1143 117.81 76.1604 117.793 76.2053C117.743 76.3335 117.698 76.4493 117.65 76.5521C117.605 76.4785 117.558 76.3945 117.513 76.305C117 75.0737 116.577 73.8125 116.153 72.5485C115.336 70.1121 114.515 67.6652 113.036 65.4043C111.634 63.1481 109.668 61.1445 107.341 59.8845C106.669 59.5126 105.923 59.2005 105.19 58.9821C103.046 58.2893 100.646 58.4936 98.4509 58.6806C98.1457 58.7064 97.8447 58.7321 97.5487 58.755C94.2165 59.0644 90.923 58.7634 87.7288 57.7759C74.9763 53.7517 65.7017 42.8651 66.8804 28.6414C67.7257 17.4088 74.0124 6.70964 83.367 0.801025C78.2037 3.74966 73.7728 8.06619 70.6583 13.2597C67.9541 17.9082 66.1148 23.1017 65.5336 28.5137C64.1403 40.9012 70.5979 51.7508 81.1584 57.4097C83.6781 58.7832 86.3491 59.9356 89.1359 60.5969C91.9282 61.3149 94.9022 61.4483 97.711 61.2383C98.0714 61.216 98.4313 61.1894 98.79 61.1629C101.046 60.9968 103.26 60.8334 105.325 61.7688C110.263 63.9484 112.449 69.3916 113.961 74.3807C114.076 74.7045 114.18 75.0308 114.284 75.3564C114.677 76.5831 115.065 77.7978 115.999 78.8136C116.965 79.838 118.648 79.7445 119.529 78.6207C120.195 77.7636 120.498 76.6937 120.71 75.8934C120.935 75.0373 121.123 74.2069 121.307 73.39C121.436 72.823 121.562 72.2626 121.699 71.7045C123.233 65.0525 126.096 58.5564 130.918 53.7799C131.866 52.8293 132.887 51.9551 133.958 51.0755C134.117 50.9431 134.279 50.8102 134.442 50.6758C136.127 49.2906 137.99 47.7591 138.307 45.374C138.767 41.1881 135.567 37.7483 132.689 35.322C127.025 30.7925 120.06 28.1532 112.961 27.3784C105.725 26.564 98.3638 28.4512 92.7958 33.4206C91.3621 34.6342 90.05 36.0016 88.7496 37.3568C88.0917 38.0426 87.4367 38.7251 86.7704 39.3831L86.7459 39.4062C85.3333 40.7351 83.9313 42.0539 82.0395 42.1131C77.4656 41.9939 75.0946 36.0088 74.0426 32.0951C72.5751 26.7058 72.71 20.8852 74.9184 15.7202ZM117.485 76.8264C117.483 76.8283 117.48 76.8311 117.477 76.8355C117.48 76.8326 117.483 76.8293 117.485 76.8264Z" stroke="#29452F" stroke-width="2.34155"/>
<path d="M100.03 40.998C102.448 36.8488 108.701 36.4514 110.915 40.998C107.184 38.3074 103.835 38.77 100.03 40.998Z" stroke="#29452F" stroke-width="2.34155"/>
<path d="M139.64 45.6972C145.175 45.1471 151.258 43.9667 155.554 39.5237C157.051 37.9409 159.418 35.3242 158.378 33.3685C157.035 31.1138 152.5 30.4734 149.839 30.3447C148.469 30.3444 147.048 30.4746 145.679 30.8715C144.41 31.2005 143.138 31.75 141.954 32.3934C140.501 33.1989 139.088 34.2164 137.817 35.343C137.375 35.7162 136.961 36.124 136.534 36.5281C138.487 33.5269 141.27 30.9871 144.508 29.526C146.295 28.714 148.224 28.2737 150.096 28.1549C154.159 28.0384 161.004 28.9813 161.177 33.9454C161.138 37.1671 158.402 39.9444 155.994 41.9995C151.182 45.8182 144.975 46.5343 139.639 45.6918L139.64 45.6972Z" fill="#29452F" stroke="#29452F" stroke-width="0.836269"/>
<path d="M134.011 60.5606C139.752 64.2335 146.484 67.7278 153.879 66.7909C156.481 66.4319 160.679 65.757 161.107 63.1247C161.463 59.9816 157.558 55.943 155.086 53.8063C153.764 52.7687 152.298 51.8149 150.688 51.1527C149.223 50.5019 147.595 50.0571 145.982 49.7673C143.991 49.4263 141.883 49.3153 139.832 49.4154C139.133 49.4323 138.435 49.5037 137.727 49.5612C141.808 48.21 146.351 47.9224 150.543 48.9969C152.861 49.5843 155.044 50.6303 156.936 51.9362C160.94 54.903 166.851 60.9761 163.385 65.789C160.99 68.7979 156.318 69.3449 152.491 69.4592C145.055 69.4163 138.544 65.3906 134.014 60.5546L134.011 60.5606Z" fill="#29452F" stroke="#29452F" stroke-width="0.836269"/>
<path d="M124.54 69.9856C126.557 76.6322 129.437 83.8109 135.629 88.0823C137.826 89.5629 141.432 91.8796 143.425 90.1756C145.687 88.0359 145.291 82.3486 144.774 79.0662C144.432 77.3911 143.927 75.6816 143.128 74.0956C142.432 72.6167 141.481 71.1829 140.444 69.8772C139.153 68.2783 137.628 66.7746 136.012 65.4695C135.472 65.011 134.899 64.5955 134.326 64.1621C138.272 65.8872 141.893 68.7296 144.385 72.3662C145.767 74.3718 146.757 76.6339 147.361 78.8971C148.511 83.8389 149.135 92.4174 143.46 93.7262C139.739 94.3907 135.855 91.658 132.886 89.1672C127.285 84.127 124.909 76.6949 124.546 69.9831L124.54 69.9856Z" fill="#29452F" stroke="#29452F" stroke-width="0.836269"/>
<path d="M111.764 73.6023C109.468 79.8502 107.534 87.0073 109.868 93.8768C110.717 96.2877 112.176 100.158 114.718 100.02C117.723 99.706 120.723 95.1356 122.23 92.3295C122.938 90.8518 123.539 89.2529 123.84 87.5766C124.158 86.0421 124.253 84.3939 124.205 82.793C124.13 80.8199 123.818 78.7834 123.32 76.8455C123.166 76.1808 122.961 75.5292 122.768 74.865C124.835 78.4816 126 82.762 125.824 86.99C125.733 89.3263 125.187 91.6293 124.341 93.7087C122.361 98.1497 117.858 105.06 112.679 102.749C109.397 101.087 107.965 96.7375 107.103 93.1058C105.675 85.9938 108.149 78.9373 111.77 73.604L111.764 73.6023Z" fill="#29452F" stroke="#29452F" stroke-width="0.836269"/>
<path d="M38.3162 141.077L36.2831 145.797C35.4859 147.65 35.0871 148.888 35.0871 149.511C35.0871 150.182 36.1155 150.517 38.1727 150.517H38.5554V152.002H29.3704V150.517L29.8728 150.493C31.2441 150.429 32.0574 150.261 32.3124 149.99C32.5837 149.702 33.2532 148.305 34.3218 145.797L46.7837 116.088H48.4579L60.8721 145.965C61.8448 148.105 62.5304 149.383 62.9292 149.798C63.3277 150.197 64.1091 150.429 65.2732 150.493L65.8235 150.517V152.002H52.6918V150.517H53.1222C55.3548 150.517 56.4709 150.197 56.4709 149.558C56.4709 148.616 56.136 147.362 55.4665 145.797L53.4811 141.077H38.3162ZM39.1056 139.136H52.62L45.8986 122.988L39.1056 139.136ZM66.8519 152.002V150.517L67.3064 150.493C69.2358 150.365 70.3761 150.094 70.7268 149.678C71.0937 149.247 71.2768 147.953 71.2768 145.797V122.748C71.2768 120.576 71.0937 119.282 70.7268 118.867C70.3761 118.451 69.2358 118.18 67.3064 118.052L66.8519 118.004V116.543H78.1896L81.8972 116.447L83.6192 116.423C89.1686 116.423 93.4262 117.893 96.3923 120.832C99.3422 123.77 100.817 127.995 100.817 133.506C100.817 139.208 99.2944 143.721 96.2487 147.043C93.203 150.349 89.057 152.002 83.8105 152.002H66.8519ZM76.3 118.148V145.797C76.3 147.953 76.5154 149.183 76.9458 149.487C77.8069 150.078 79.4812 150.373 81.969 150.373C86.4815 150.373 89.8622 149.023 92.1106 146.324C94.375 143.609 95.5071 139.544 95.5071 134.129C95.5071 128.491 94.2953 124.417 91.8715 121.91C89.4476 119.402 85.5169 118.148 80.0792 118.148H76.3ZM112.418 141.077L110.385 145.797C109.588 147.65 109.189 148.888 109.189 149.511C109.189 150.182 110.218 150.517 112.275 150.517H112.657V152.002H103.472V150.517L103.975 150.493C105.346 150.429 106.159 150.261 106.414 149.99C106.685 149.702 107.355 148.305 108.423 145.797L120.885 116.088H122.56L134.974 145.965C135.947 148.105 136.632 149.383 137.031 149.798C137.43 150.197 138.211 150.429 139.375 150.493L139.925 150.517V152.002H126.793V150.517H127.224C129.457 150.517 130.573 150.197 130.573 149.558C130.573 148.616 130.238 147.362 129.568 145.797L127.583 141.077H112.418ZM113.207 139.136H126.722L120.001 122.988L113.207 139.136ZM150.354 137.22V145.797C150.354 147.921 150.545 149.215 150.928 149.678C151.311 150.125 152.451 150.397 154.348 150.493L155.377 150.517V152.002H140.954V150.517L141.408 150.493C143.338 150.365 144.478 150.094 144.829 149.678C145.195 149.247 145.379 147.953 145.379 145.797V122.748C145.379 120.576 145.195 119.282 144.829 118.867C144.478 118.451 143.338 118.18 141.408 118.052L140.954 118.004V116.543H151.478L154.97 116.423L156.621 116.375C163.509 116.375 166.954 119.498 166.954 125.743C166.954 129.561 165.694 132.428 163.175 134.345C160.671 136.261 156.9 137.22 151.861 137.22H150.354ZM150.354 135.59H152.148C155.321 135.59 157.697 134.776 159.276 133.146C160.855 131.517 161.644 129.081 161.644 125.839C161.644 123.076 161.038 121.103 159.826 119.921C158.63 118.739 156.621 118.148 153.798 118.148H150.354V135.59ZM181.712 118.46H176.067C174.744 118.46 173.588 118.532 172.599 118.675C171.945 118.771 171.618 119.362 171.618 120.448C171.618 121.263 171.602 121.966 171.57 122.556L171.546 123.036H169.035V116.543H199.436V123.036H196.925L196.901 122.556C196.853 121.966 196.829 121.263 196.829 120.448C196.829 119.362 196.51 118.771 195.872 118.675C194.868 118.532 193.712 118.46 192.404 118.46H186.735V145.797C186.735 147.921 186.927 149.215 187.309 149.678C187.692 150.125 188.832 150.397 190.73 150.493L191.758 150.517V152.002H176.713V150.517L177.742 150.493C179.639 150.397 180.771 150.125 181.138 149.678C181.521 149.215 181.712 147.921 181.712 145.797V118.46Z" fill="#1E1E1E"/>
<path d="M0.835327 176.796L4.35314 166.344H6.06299L9.5808 176.796H8.11622L7.1702 173.876H3.18287L2.23684 176.796H0.835327ZM6.78478 172.689L5.17303 167.762L3.5683 172.689H6.78478ZM11.8092 176.796H10.4918V165.874H11.8092V176.796ZM18.8869 176.796H13.1337V175.82L17.2261 170.043H13.3018V168.955H18.8098V169.896L14.6963 175.694H18.8869V176.796ZM26.273 176.796H24.9555V172.331C24.9555 171.971 24.9368 171.636 24.8994 171.328C24.8667 171.014 24.8013 170.764 24.7032 170.576C24.5957 170.38 24.4462 170.235 24.2547 170.141C24.0632 170.043 23.8015 169.994 23.4698 169.994C23.1428 169.994 22.8041 170.083 22.4538 170.261C22.108 170.434 21.7693 170.661 21.4377 170.942V176.796H20.1202V165.874H21.4377V169.825C21.8301 169.475 22.2178 169.205 22.6009 169.018C22.984 168.831 23.3881 168.738 23.8132 168.738C24.5841 168.738 25.1867 168.993 25.6212 169.503C26.0556 170.008 26.273 170.743 26.273 171.707V176.796ZM31.5216 176.978C30.2741 176.978 29.3048 176.627 28.6135 175.925C27.9267 175.219 27.5833 174.217 27.5833 172.921C27.5833 171.644 27.9172 170.628 28.5853 169.875C29.2534 169.117 30.1271 168.738 31.2063 168.738C31.6922 168.738 32.1219 168.808 32.4956 168.948C32.8694 169.089 33.1964 169.309 33.4768 169.608C33.757 169.908 33.9719 170.275 34.1214 170.71C34.2709 171.141 34.3456 171.669 34.3456 172.296V173.012H28.9217C28.9217 173.925 29.1506 174.622 29.6086 175.104C30.0662 175.586 30.6994 175.827 31.5075 175.827C31.7971 175.827 32.0798 175.794 32.3555 175.729C32.6357 175.663 32.888 175.579 33.1122 175.476C33.3506 175.369 33.5516 175.265 33.7149 175.167C33.8785 175.064 34.0139 174.968 34.1214 174.879H34.1986V176.318C34.0444 176.379 33.8528 176.456 33.6238 176.55C33.3949 176.639 33.1894 176.709 33.0073 176.761C32.7503 176.831 32.5167 176.885 32.3065 176.922C32.1008 176.96 31.8392 176.978 31.5216 176.978ZM33.0632 172.002C33.0538 171.646 33.012 171.339 32.9372 171.082C32.8625 170.825 32.7548 170.607 32.6147 170.429C32.4605 170.233 32.262 170.083 32.0192 169.98C31.7808 169.877 31.4843 169.825 31.1291 169.825C30.7788 169.825 30.4798 169.879 30.2321 169.987C29.9892 170.09 29.7672 170.242 29.5665 170.443C29.3702 170.649 29.2207 170.878 29.118 171.131C29.0152 171.379 28.9499 171.669 28.9217 172.002H33.0632ZM37.0225 176.796H35.705V168.955H37.0225V176.796ZM37.1136 167.642H35.6139V166.274H37.1136V167.642ZM47.8422 176.796V172.261C47.8422 171.901 47.8283 171.569 47.8001 171.264C47.7721 170.956 47.7137 170.715 47.6251 170.542C47.5315 170.354 47.3984 170.216 47.2256 170.127C47.0528 170.038 46.8192 169.994 46.5249 169.994C46.2538 169.994 45.962 170.078 45.6489 170.247C45.3405 170.41 45.0204 170.649 44.6888 170.963C44.6935 171.042 44.6982 171.138 44.7029 171.25C44.7123 171.358 44.717 171.487 44.717 171.636V176.796H43.3994V172.261C43.3994 171.901 43.3853 171.569 43.3573 171.264C43.3294 170.956 43.271 170.715 43.1821 170.542C43.0888 170.354 42.9556 170.216 42.7828 170.127C42.6098 170.038 42.3764 169.994 42.0821 169.994C41.797 169.994 41.498 170.083 41.1851 170.261C40.872 170.439 40.5683 170.665 40.274 170.942V176.796H38.9567V168.955H40.274V169.825C40.6198 169.479 40.9608 169.213 41.2972 169.025C41.6383 168.834 42.0118 168.738 42.4185 168.738C42.8809 168.738 43.2898 168.843 43.6447 169.053C44.0044 169.264 44.2776 169.61 44.4645 170.092C44.8618 169.648 45.2494 169.311 45.6278 169.081C46.0063 168.852 46.4174 168.738 46.8612 168.738C47.1976 168.738 47.5036 168.791 47.7793 168.899C48.0548 169.002 48.2954 169.17 48.5011 169.404C48.7112 169.643 48.8723 169.94 48.9845 170.296C49.1013 170.651 49.1597 171.098 49.1597 171.636V176.796H47.8422ZM54.4084 176.978C53.1611 176.978 52.1916 176.627 51.5003 175.925C50.8134 175.219 50.4701 174.217 50.4701 172.921C50.4701 171.644 50.8042 170.628 51.4723 169.875C52.1404 169.117 53.0139 168.738 54.093 168.738C54.5789 168.738 55.0086 168.808 55.3824 168.948C55.7561 169.089 56.0831 169.309 56.3636 169.608C56.6437 169.908 56.8586 170.275 57.0081 170.71C57.1576 171.141 57.2324 171.669 57.2324 172.296V173.012H51.8084C51.8084 173.925 52.0374 174.622 52.4953 175.104C52.9532 175.586 53.5861 175.827 54.3943 175.827C54.6839 175.827 54.9665 175.794 55.2423 175.729C55.5225 175.663 55.775 175.579 55.9992 175.476C56.2373 175.369 56.4383 175.265 56.6017 175.167C56.7653 175.064 56.9007 174.968 57.0081 174.879H57.0853V176.318C56.9311 176.379 56.7395 176.456 56.5106 176.55C56.2816 176.639 56.0762 176.709 55.894 176.761C55.6371 176.831 55.4034 176.885 55.1933 176.922C54.9876 176.96 54.726 176.978 54.4084 176.978ZM55.9499 172.002C55.9408 171.646 55.8987 171.339 55.824 171.082C55.7492 170.825 55.6418 170.607 55.5014 170.429C55.3475 170.233 55.1487 170.083 54.9059 169.98C54.6675 169.877 54.371 169.825 54.0158 169.825C53.6656 169.825 53.3666 169.879 53.1191 169.987C52.876 170.09 52.6542 170.242 52.4532 170.443C52.2569 170.649 52.1074 170.878 52.0047 171.131C51.902 171.379 51.8367 171.669 51.8084 172.002H55.9499ZM62.7125 170.373H62.6422C62.5441 170.345 62.4389 170.329 62.3268 170.324C62.2194 170.315 62.0887 170.31 61.9345 170.31C61.5796 170.31 61.2268 170.387 60.8764 170.542C60.5261 170.696 60.1942 170.925 59.8813 171.229V176.796H58.5638V168.955H59.8813V170.12C60.3625 169.695 60.7806 169.395 61.1358 169.222C61.4954 169.044 61.8434 168.955 62.1798 168.955C62.3152 168.955 62.4157 168.96 62.481 168.969C62.5511 168.974 62.6283 168.983 62.7125 168.997V170.373ZM67.3653 172.858H63.4132V171.587H67.3653V172.858ZM77.281 171.58C77.281 172.535 77.0872 173.396 76.6996 174.163C76.3164 174.931 75.8001 175.53 75.1509 175.96C74.6229 176.293 74.0858 176.515 73.539 176.627C72.9972 176.74 72.3034 176.796 71.4579 176.796H69.0542V166.344H71.4299C72.4108 166.344 73.1794 166.419 73.7353 166.569C74.2959 166.714 74.7724 166.915 75.165 167.172C75.8375 167.617 76.3585 168.209 76.7276 168.948C77.0966 169.683 77.281 170.56 77.281 171.58ZM75.8375 171.559C75.8375 170.754 75.7043 170.069 75.4382 169.503C75.1719 168.932 74.7771 168.487 74.2538 168.169C73.8848 167.944 73.49 167.783 73.0695 167.685C72.6492 167.586 72.1259 167.537 71.4999 167.537H70.4418V175.602H71.4999C72.1165 175.602 72.6561 175.553 73.1187 175.455C73.5811 175.357 74.0039 175.174 74.387 174.907C74.8682 174.58 75.2303 174.145 75.4731 173.602C75.7162 173.054 75.8375 172.373 75.8375 171.559ZM82.0884 176.978C80.8411 176.978 79.8716 176.627 79.1803 175.925C78.4934 175.219 78.1501 174.217 78.1501 172.921C78.1501 171.644 78.4842 170.628 79.1523 169.875C79.8203 169.117 80.6938 168.738 81.773 168.738C82.2589 168.738 82.6886 168.808 83.0624 168.948C83.4361 169.089 83.7631 169.309 84.0435 169.608C84.3237 169.908 84.5386 170.275 84.6881 170.71C84.8376 171.141 84.9123 171.669 84.9123 172.296V173.012H79.4884C79.4884 173.925 79.7174 174.622 80.1753 175.104C80.6332 175.586 81.2661 175.827 82.0743 175.827C82.3639 175.827 82.6465 175.794 82.9223 175.729C83.2025 175.663 83.4549 175.579 83.6792 175.476C83.9173 175.369 84.1183 175.265 84.2816 175.167C84.4453 175.064 84.5807 174.968 84.6881 174.879H84.7653V176.318C84.6111 176.379 84.4195 176.456 84.1906 176.55C83.9616 176.639 83.7562 176.709 83.574 176.761C83.3171 176.831 83.0834 176.885 82.8733 176.922C82.6676 176.96 82.4059 176.978 82.0884 176.978ZM83.6299 172.002C83.6208 171.646 83.5787 171.339 83.5039 171.082C83.4292 170.825 83.3218 170.607 83.1814 170.429C83.0275 170.233 82.8287 170.083 82.5859 169.98C82.3475 169.877 82.051 169.825 81.6958 169.825C81.3456 169.825 81.0466 169.879 80.799 169.987C80.556 170.09 80.3342 170.242 80.1332 170.443C79.9369 170.649 79.7874 170.878 79.6847 171.131C79.582 171.379 79.5166 171.669 79.4884 172.002H83.6299ZM95.1295 176.796V172.261C95.1295 171.901 95.1154 171.569 95.0874 171.264C95.0594 170.956 95.001 170.715 94.9122 170.542C94.8188 170.354 94.6857 170.216 94.5129 170.127C94.3399 170.038 94.1065 169.994 93.8119 169.994C93.5412 169.994 93.2491 170.078 92.9362 170.247C92.6278 170.41 92.3078 170.649 91.9761 170.963C91.9808 171.042 91.9855 171.138 91.9902 171.25C91.9993 171.358 92.004 171.487 92.004 171.636V176.796H90.6867V172.261C90.6867 171.901 90.6726 171.569 90.6447 171.264C90.6167 170.956 90.5583 170.715 90.4694 170.542C90.3761 170.354 90.2429 170.216 90.0699 170.127C89.8972 170.038 89.6635 169.994 89.3692 169.994C89.0843 169.994 88.7853 170.083 88.4722 170.261C88.1593 170.439 87.8556 170.665 87.5613 170.942V176.796H86.2437V168.955H87.5613V169.825C87.9071 169.479 88.2479 169.213 88.5843 169.025C88.9254 168.834 89.2991 168.738 89.7056 168.738C90.1682 168.738 90.5768 168.843 90.932 169.053C91.2917 169.264 91.5649 169.61 91.7518 170.092C92.1488 169.648 92.5367 169.311 92.9152 169.081C93.2934 168.852 93.7045 168.738 94.1483 168.738C94.4847 168.738 94.7909 168.791 95.0664 168.899C95.3421 169.002 95.5827 169.17 95.7881 169.404C95.9985 169.643 96.1597 169.94 96.2718 170.296C96.3886 170.651 96.4468 171.098 96.4468 171.636V176.796H95.1295ZM101.696 176.978C100.448 176.978 99.4789 176.627 98.7873 175.925C98.1007 175.219 97.7574 174.217 97.7574 172.921C97.7574 171.644 98.0913 170.628 98.7594 169.875C99.4274 169.117 100.301 168.738 101.38 168.738C101.866 168.738 102.296 168.808 102.67 168.948C103.043 169.089 103.37 169.309 103.651 169.608C103.931 169.908 104.146 170.275 104.295 170.71C104.445 171.141 104.52 171.669 104.52 172.296V173.012H99.0958C99.0958 173.925 99.3247 174.622 99.7826 175.104C100.24 175.586 100.873 175.827 101.682 175.827C101.971 175.827 102.254 175.794 102.53 175.729C102.81 175.663 103.062 175.579 103.286 175.476C103.525 175.369 103.725 175.265 103.889 175.167C104.052 175.064 104.188 174.968 104.295 174.879H104.372V176.318C104.218 176.379 104.027 176.456 103.798 176.55C103.569 176.639 103.364 176.709 103.181 176.761C102.924 176.831 102.691 176.885 102.48 176.922C102.275 176.96 102.013 176.978 101.696 176.978ZM103.237 172.002C103.228 171.646 103.186 171.339 103.111 171.082C103.036 170.825 102.929 170.607 102.789 170.429C102.635 170.233 102.436 170.083 102.193 169.98C101.955 169.877 101.658 169.825 101.303 169.825C100.953 169.825 100.654 169.879 100.406 169.987C100.163 170.09 99.9413 170.242 99.7406 170.443C99.5443 170.649 99.3948 170.878 99.292 171.131C99.1893 171.379 99.1237 171.669 99.0958 172.002H103.237ZM112.004 176.796H110.686V172.331C110.686 171.971 110.668 171.636 110.63 171.328C110.598 171.014 110.532 170.764 110.434 170.576C110.327 170.38 110.177 170.235 109.986 170.141C109.794 170.043 109.532 169.994 109.201 169.994C108.874 169.994 108.535 170.083 108.185 170.261C107.839 170.434 107.5 170.661 107.169 170.942V176.796H105.851V168.955H107.169V169.825C107.561 169.475 107.949 169.205 108.332 169.018C108.715 168.831 109.119 168.738 109.544 168.738C110.315 168.738 110.918 168.993 111.352 169.503C111.787 170.008 112.004 170.743 112.004 171.707V176.796ZM116.222 176.95C115.503 176.95 114.942 176.747 114.541 176.339C114.139 175.928 113.938 175.28 113.938 174.395V170.05H113.048V168.955H113.938V166.702H115.255V168.955H117.68V170.05H115.255V173.777C115.255 174.175 115.262 174.482 115.276 174.697C115.29 174.912 115.344 175.113 115.438 175.301C115.517 175.464 115.645 175.588 115.823 175.673C116 175.752 116.241 175.792 116.545 175.792C116.76 175.792 116.967 175.762 117.168 175.701C117.369 175.635 117.514 175.581 117.603 175.539H117.68V176.725C117.432 176.796 117.18 176.849 116.923 176.887C116.671 176.929 116.437 176.95 116.222 176.95ZM120.007 176.796H118.689V168.955H120.007V176.796ZM120.098 167.642H118.598V166.274H120.098V167.642ZM126.313 174.865V172.689C126 172.717 125.603 172.757 125.122 172.809C124.646 172.855 124.26 172.923 123.966 173.012C123.615 173.12 123.326 173.286 123.097 173.511C122.868 173.731 122.753 174.039 122.753 174.437C122.753 174.887 122.88 175.226 123.132 175.455C123.384 175.684 123.753 175.799 124.239 175.799C124.655 175.799 125.031 175.71 125.367 175.532C125.703 175.35 126.019 175.128 126.313 174.865ZM126.313 175.96C126.206 176.04 126.061 176.152 125.879 176.297C125.701 176.438 125.528 176.55 125.36 176.634C125.127 176.756 124.9 176.849 124.68 176.915C124.466 176.981 124.162 177.013 123.77 177.013C123.447 177.013 123.141 176.952 122.852 176.831C122.562 176.709 122.307 176.538 122.088 176.318C121.878 176.103 121.709 175.839 121.583 175.525C121.457 175.207 121.394 174.872 121.394 174.521C121.394 173.979 121.508 173.518 121.737 173.139C121.966 172.755 122.328 172.451 122.824 172.226C123.263 172.025 123.781 171.887 124.379 171.812C124.977 171.732 125.622 171.674 126.313 171.636V171.384C126.313 171.075 126.267 170.827 126.173 170.64C126.08 170.448 125.949 170.301 125.781 170.198C125.612 170.09 125.407 170.02 125.164 169.987C124.921 169.949 124.671 169.931 124.414 169.931C124.11 169.931 123.753 169.978 123.342 170.071C122.931 170.16 122.52 170.291 122.109 170.464H122.032V169.124C122.275 169.053 122.623 168.976 123.076 168.892C123.529 168.808 123.978 168.766 124.421 168.766C124.958 168.766 125.412 168.808 125.781 168.892C126.15 168.976 126.481 169.128 126.776 169.348C127.061 169.563 127.273 169.842 127.413 170.183C127.554 170.525 127.624 170.942 127.624 171.433V176.796H126.313V175.96ZM140.658 169.496C140.658 169.949 140.576 170.38 140.413 170.787C140.254 171.19 140.032 171.534 139.747 171.819C139.387 172.175 138.964 172.444 138.479 172.626C137.993 172.809 137.378 172.9 136.635 172.9H135.458V176.796H134.071V166.344H136.691C137.308 166.344 137.834 166.395 138.268 166.498C138.703 166.601 139.086 166.767 139.417 166.997C139.805 167.264 140.109 167.603 140.328 168.015C140.548 168.422 140.658 168.915 140.658 169.496ZM139.214 169.531C139.214 169.17 139.151 168.857 139.025 168.59C138.904 168.323 138.717 168.106 138.464 167.937C138.245 167.792 137.988 167.689 137.694 167.629C137.404 167.568 137.042 167.537 136.607 167.537H135.458V171.714H136.404C136.965 171.714 137.418 171.669 137.764 171.58C138.109 171.487 138.397 171.323 138.626 171.089C138.831 170.878 138.981 170.649 139.074 170.401C139.168 170.153 139.214 169.863 139.214 169.531ZM146.257 174.865V172.689C145.944 172.717 145.547 172.757 145.066 172.809C144.589 172.855 144.204 172.923 143.909 173.012C143.559 173.12 143.269 173.286 143.04 173.511C142.811 173.731 142.697 174.039 142.697 174.437C142.697 174.887 142.823 175.226 143.075 175.455C143.328 175.684 143.697 175.799 144.183 175.799C144.598 175.799 144.974 175.71 145.311 175.532C145.647 175.35 145.963 175.128 146.257 174.865ZM146.257 175.96C146.149 176.04 146.005 176.152 145.822 176.297C145.645 176.438 145.472 176.55 145.304 176.634C145.07 176.756 144.844 176.849 144.624 176.915C144.409 176.981 144.106 177.013 143.713 177.013C143.391 177.013 143.085 176.952 142.795 176.831C142.505 176.709 142.251 176.538 142.031 176.318C141.821 176.103 141.653 175.839 141.527 175.525C141.4 175.207 141.338 174.872 141.338 174.521C141.338 173.979 141.452 173.518 141.681 173.139C141.91 172.755 142.272 172.451 142.767 172.226C143.206 172.025 143.725 171.887 144.323 171.812C144.921 171.732 145.566 171.674 146.257 171.636V171.384C146.257 171.075 146.21 170.827 146.117 170.64C146.023 170.448 145.893 170.301 145.724 170.198C145.556 170.09 145.35 170.02 145.108 169.987C144.865 169.949 144.615 169.931 144.358 169.931C144.054 169.931 143.697 169.978 143.286 170.071C142.874 170.16 142.463 170.291 142.052 170.464H141.975V169.124C142.218 169.053 142.566 168.976 143.019 168.892C143.472 168.808 143.921 168.766 144.365 168.766C144.902 168.766 145.355 168.808 145.724 168.892C146.093 168.976 146.425 169.128 146.719 169.348C147.004 169.563 147.217 169.842 147.357 170.183C147.497 170.525 147.567 170.942 147.567 171.433V176.796H146.257V175.96ZM151.793 176.95C151.073 176.95 150.513 176.747 150.111 176.339C149.709 175.928 149.508 175.28 149.508 174.395V170.05H148.618V168.955H149.508V166.702H150.826V168.955H153.251V170.05H150.826V173.777C150.826 174.175 150.833 174.482 150.847 174.697C150.861 174.912 150.915 175.113 151.008 175.301C151.087 175.464 151.216 175.588 151.393 175.673C151.571 175.752 151.811 175.792 152.115 175.792C152.33 175.792 152.538 175.762 152.739 175.701C152.94 175.635 153.085 175.581 153.173 175.539H153.251V176.725C153.003 176.796 152.751 176.849 152.494 176.887C152.241 176.929 152.008 176.95 151.793 176.95ZM155.577 176.796H154.259V168.955H155.577V176.796ZM155.668 167.642H154.168V166.274H155.668V167.642ZM160.91 176.978C159.662 176.978 158.693 176.627 158.002 175.925C157.315 175.219 156.972 174.217 156.972 172.921C156.972 171.644 157.305 170.628 157.973 169.875C158.642 169.117 159.515 168.738 160.594 168.738C161.08 168.738 161.51 168.808 161.884 168.948C162.258 169.089 162.585 169.309 162.865 169.608C163.145 169.908 163.36 170.275 163.51 170.71C163.659 171.141 163.734 171.669 163.734 172.296V173.012H158.31C158.31 173.925 158.539 174.622 158.997 175.104C159.454 175.586 160.088 175.827 160.896 175.827C161.185 175.827 161.468 175.794 161.744 175.729C162.024 175.663 162.276 175.579 162.5 175.476C162.739 175.369 162.939 175.265 163.103 175.167C163.267 175.064 163.402 174.968 163.51 174.879H163.587V176.318C163.433 176.379 163.241 176.456 163.012 176.55C162.783 176.639 162.578 176.709 162.395 176.761C162.139 176.831 161.905 176.885 161.694 176.922C161.489 176.96 161.227 176.978 160.91 176.978ZM162.451 172.002C162.442 171.646 162.4 171.339 162.325 171.082C162.251 170.825 162.143 170.607 162.003 170.429C161.849 170.233 161.65 170.083 161.407 169.98C161.169 169.877 160.872 169.825 160.517 169.825C160.167 169.825 159.868 169.879 159.62 169.987C159.377 170.09 159.155 170.242 158.955 170.443C158.758 170.649 158.609 170.878 158.506 171.131C158.403 171.379 158.338 171.669 158.31 172.002H162.451ZM171.218 176.796H169.901V172.331C169.901 171.971 169.882 171.636 169.844 171.328C169.812 171.014 169.746 170.764 169.648 170.576C169.541 170.38 169.391 170.235 169.2 170.141C169.008 170.043 168.747 169.994 168.415 169.994C168.088 169.994 167.749 170.083 167.399 170.261C167.053 170.434 166.714 170.661 166.383 170.942V176.796H165.065V168.955H166.383V169.825C166.775 169.475 167.163 169.205 167.546 169.018C167.929 168.831 168.333 168.738 168.758 168.738C169.529 168.738 170.132 168.993 170.566 169.503C171.001 170.008 171.218 170.743 171.218 171.707V176.796ZM175.437 176.95C174.717 176.95 174.156 176.747 173.755 176.339C173.353 175.928 173.152 175.28 173.152 174.395V170.05H172.262V168.955H173.152V166.702H174.469V168.955H176.894V170.05H174.469V173.777C174.469 174.175 174.476 174.482 174.491 174.697C174.504 174.912 174.558 175.113 174.652 175.301C174.731 175.464 174.86 175.588 175.037 175.673C175.215 175.752 175.455 175.792 175.759 175.792C175.974 175.792 176.182 175.762 176.383 175.701C176.583 175.635 176.728 175.581 176.817 175.539H176.894V176.725C176.646 176.796 176.394 176.849 176.137 176.887C175.885 176.929 175.651 176.95 175.437 176.95ZM184.904 176.796V167.579H181.4V166.344H189.795V167.579H186.291V176.796H184.904ZM194.889 170.373H194.819C194.721 170.345 194.616 170.329 194.504 170.324C194.397 170.315 194.266 170.31 194.112 170.31C193.757 170.31 193.404 170.387 193.054 170.542C192.703 170.696 192.371 170.925 192.059 171.229V176.796H190.741V168.955H192.059V170.12C192.54 169.695 192.958 169.395 193.313 169.222C193.673 169.044 194.021 168.955 194.357 168.955C194.492 168.955 194.593 168.96 194.658 168.969C194.728 168.974 194.806 168.983 194.889 168.997V170.373ZM200.285 174.865V172.689C199.972 172.717 199.575 172.757 199.094 172.809C198.618 172.855 198.232 172.923 197.938 173.012C197.587 173.12 197.298 173.286 197.069 173.511C196.84 173.731 196.726 174.039 196.726 174.437C196.726 174.887 196.852 175.226 197.104 175.455C197.356 175.684 197.725 175.799 198.211 175.799C198.627 175.799 199.003 175.71 199.339 175.532C199.676 175.35 199.991 175.128 200.285 174.865ZM200.285 175.96C200.178 176.04 200.033 176.152 199.851 176.297C199.673 176.438 199.501 176.55 199.332 176.634C199.099 176.756 198.872 176.849 198.652 176.915C198.438 176.981 198.134 177.013 197.742 177.013C197.419 177.013 197.113 176.952 196.824 176.831C196.534 176.709 196.279 176.538 196.06 176.318C195.85 176.103 195.682 175.839 195.555 175.525C195.429 175.207 195.366 174.872 195.366 174.521C195.366 173.979 195.481 173.518 195.709 173.139C195.938 172.755 196.3 172.451 196.796 172.226C197.235 172.025 197.753 171.887 198.351 171.812C198.949 171.732 199.594 171.674 200.285 171.636V171.384C200.285 171.075 200.239 170.827 200.145 170.64C200.052 170.448 199.921 170.301 199.753 170.198C199.585 170.09 199.379 170.02 199.136 169.987C198.893 169.949 198.643 169.931 198.386 169.931C198.083 169.931 197.725 169.978 197.314 170.071C196.903 170.16 196.492 170.291 196.081 170.464H196.004V169.124C196.247 169.053 196.595 168.976 197.048 168.892C197.501 168.808 197.95 168.766 198.393 168.766C198.93 168.766 199.384 168.808 199.753 168.892C200.122 168.976 200.453 169.128 200.748 169.348C201.033 169.563 201.246 169.842 201.386 170.183C201.526 170.525 201.596 170.942 201.596 171.433V176.796H200.285V175.96ZM206.564 176.971C206.027 176.971 205.534 176.889 205.086 176.725C204.637 176.557 204.252 176.304 203.929 175.967C203.607 175.631 203.357 175.207 203.18 174.697C203.002 174.182 202.913 173.578 202.913 172.886C202.913 172.198 203.004 171.604 203.187 171.103C203.373 170.602 203.621 170.181 203.929 169.84C204.238 169.498 204.621 169.236 205.079 169.053C205.541 168.866 206.036 168.773 206.564 168.773C206.994 168.773 207.408 168.833 207.805 168.955C208.206 169.077 208.564 169.217 208.877 169.376V170.857H208.8C208.706 170.778 208.585 170.687 208.435 170.584C208.29 170.481 208.113 170.375 207.903 170.268C207.72 170.174 207.506 170.092 207.258 170.022C207.01 169.952 206.772 169.917 206.543 169.917C205.861 169.917 205.312 170.177 204.896 170.696C204.485 171.211 204.28 171.941 204.28 172.886C204.28 173.813 204.478 174.535 204.875 175.055C205.277 175.57 205.833 175.827 206.543 175.827C206.973 175.827 207.382 175.738 207.769 175.56C208.157 175.382 208.501 175.153 208.8 174.872H208.877V176.354C208.746 176.414 208.582 176.489 208.386 176.578C208.19 176.662 208.012 176.725 207.854 176.768C207.629 176.833 207.429 176.882 207.251 176.915C207.073 176.952 206.844 176.971 206.564 176.971ZM216.571 176.796H214.84L211.918 173.012L211.399 173.518V176.796H210.082V165.874H211.399V172.268L214.497 168.955H216.137L212.92 172.233L216.571 176.796ZM220.628 176.978C219.381 176.978 218.412 176.627 217.72 175.925C217.034 175.219 216.69 174.217 216.69 172.921C216.69 171.644 217.024 170.628 217.692 169.875C218.36 169.117 219.234 168.738 220.313 168.738C220.799 168.738 221.229 168.808 221.602 168.948C221.976 169.089 222.303 169.309 222.584 169.608C222.864 169.908 223.079 170.275 223.228 170.71C223.378 171.141 223.453 171.669 223.453 172.296V173.012H218.029C218.029 173.925 218.258 174.622 218.715 175.104C219.173 175.586 219.806 175.827 220.615 175.827C220.904 175.827 221.187 175.794 221.462 175.729C221.743 175.663 221.995 175.579 222.219 175.476C222.457 175.369 222.658 175.265 222.822 175.167C222.985 175.064 223.121 174.968 223.228 174.879H223.305V176.318C223.151 176.379 222.96 176.456 222.731 176.55C222.502 176.639 222.296 176.709 222.114 176.761C221.857 176.831 221.623 176.885 221.413 176.922C221.208 176.96 220.946 176.978 220.628 176.978ZM222.17 172.002C222.161 171.646 222.119 171.339 222.044 171.082C221.969 170.825 221.862 170.607 221.722 170.429C221.567 170.233 221.369 170.083 221.126 169.98C220.888 169.877 220.591 169.825 220.236 169.825C219.886 169.825 219.587 169.879 219.339 169.987C219.096 170.09 218.874 170.242 218.673 170.443C218.477 170.649 218.328 170.878 218.225 171.131C218.122 171.379 218.057 171.669 218.029 172.002H222.17ZM228.932 170.373H228.862C228.764 170.345 228.659 170.329 228.547 170.324C228.44 170.315 228.309 170.31 228.154 170.31C227.8 170.31 227.447 170.387 227.096 170.542C226.746 170.696 226.414 170.925 226.101 171.229V176.796H224.784V168.955H226.101V170.12C226.582 169.695 227.001 169.395 227.356 169.222C227.715 169.044 228.063 168.955 228.4 168.955C228.535 168.955 228.636 168.96 228.701 168.969C228.771 168.974 228.848 168.983 228.932 168.997V170.373Z" fill="#1E1E1E"/>
</g>
<defs>
<clipPath id="clip0_3997_4043">
<rect width="228.462" height="180" fill="white" transform="translate(0.769287)"/>
</clipPath>
</defs>
</svg>
