<svg width="167" height="43" viewBox="0 0 167 43" fill="none" xmlns="http://www.w3.org/2000/svg">
<g clip-path="url(#clip0_3997_3809)">
<path fill-rule="evenodd" clip-rule="evenodd" d="M5.06998 7.09694C5.96086 4.9715 7.48103 3.12446 9.27854 1.73742C5.945 4.01886 3.43892 7.94472 3.89739 12.1886C4.10226 14.3501 4.92066 17.5004 7.04182 18.4553C7.63726 18.7197 8.37414 18.7313 8.97182 18.4623C9.8269 18.0762 10.4924 17.3995 11.145 16.7357C11.333 16.5445 11.5198 16.3544 11.7099 16.1727C14.2172 13.5582 17.0549 12.4832 20.6069 12.892C23.3144 13.2169 25.9938 14.2698 28.1388 16.0097C29.0058 16.7492 30.1479 17.8834 30.037 19.0993C30.0076 19.302 29.9295 19.4685 29.8061 19.6385C29.5731 19.9533 29.1926 20.2637 28.8019 20.5822C28.7504 20.6243 28.6986 20.6665 28.6469 20.7088C28.1976 21.0745 27.7403 21.4612 27.3136 21.8851C25.5942 23.5691 24.4079 25.7632 23.688 28.0668C23.4618 28.7495 23.2997 29.4613 23.1388 30.1681C23.0083 30.7418 22.8784 31.3122 22.7157 31.8611C22.7079 31.8806 22.7006 31.8996 22.6935 31.918C22.6732 31.9706 22.6548 32.0181 22.6351 32.0604C22.6165 32.0302 22.597 31.9956 22.5787 31.9588C22.3676 31.4537 22.1937 30.9361 22.0195 30.4174C21.6837 29.4175 21.3463 28.4134 20.7382 27.4857C20.162 26.5598 19.3538 25.7376 18.3974 25.2205C18.1211 25.0679 17.8144 24.9398 17.5133 24.8501C16.6318 24.5659 15.6456 24.6497 14.743 24.7264C14.6177 24.7371 14.4939 24.7476 14.3722 24.7569C13.0025 24.8839 11.6488 24.7604 10.3358 24.3552C5.09382 22.7038 1.28147 18.2364 1.76594 12.3994C2.11343 7.78985 4.6976 3.39929 8.54282 0.974609C6.4204 2.18463 4.59916 3.95601 3.31897 6.08719C2.20739 7.99482 1.45126 10.1261 1.21242 12.347C0.639667 17.4304 3.29407 21.8828 7.63502 24.205C8.67074 24.7686 9.76863 25.2415 10.9142 25.5128C12.062 25.8075 13.2845 25.8622 14.4391 25.776C14.5872 25.7669 14.7351 25.756 14.8825 25.7452C15.8099 25.6769 16.7201 25.61 17.5688 25.9938C19.5983 26.8882 20.4971 29.1219 21.1185 31.1693C21.1658 31.3021 21.2087 31.4361 21.2515 31.5697C21.4127 32.0731 21.5724 32.5715 21.9561 32.9884C22.3534 33.4089 23.0451 33.3704 23.4072 32.9093C23.6812 32.5575 23.8057 32.1185 23.8929 31.7901C23.9851 31.4387 24.0623 31.0979 24.1383 30.7627C24.191 30.5301 24.2432 30.3001 24.2993 30.0711C24.9297 27.3412 26.1069 24.6754 28.089 22.7155C28.4784 22.3253 28.8983 21.9666 29.3386 21.6056C29.4038 21.5513 29.4703 21.4967 29.5374 21.4415C30.2301 20.8732 30.9959 20.2447 31.1259 19.2659C31.3149 17.5481 29.9996 16.1366 28.8168 15.1409C26.4884 13.2822 23.6257 12.1991 20.7077 11.8811C17.7329 11.5468 14.7073 12.3214 12.4185 14.3606C11.8293 14.8586 11.2899 15.4198 10.7553 15.9759C10.4849 16.2573 10.2157 16.5374 9.94188 16.8074L9.93176 16.8169C9.35111 17.3622 8.77483 17.9034 7.99719 17.9277C6.11709 17.8789 5.14246 15.4227 4.71006 13.8167C4.10673 11.6051 4.16218 9.21654 5.06998 7.09694ZM22.5672 32.1729C22.5662 32.1736 22.5651 32.1749 22.564 32.1767C22.5651 32.1754 22.5662 32.1741 22.5672 32.1729Z" fill="#FAF0CD"/>
<path d="M15.3921 17.4701C16.3859 15.7676 18.9566 15.6044 19.8666 17.4701C18.3328 16.3661 16.9564 16.5559 15.3921 17.4701Z" fill="#FAF0CD"/>
<path fill-rule="evenodd" clip-rule="evenodd" d="M5.06998 7.09694C5.96086 4.9715 7.48103 3.12446 9.27854 1.73742C5.945 4.01886 3.43892 7.94472 3.89739 12.1886C4.10226 14.3501 4.92066 17.5004 7.04182 18.4553C7.63726 18.7197 8.37414 18.7313 8.97182 18.4623C9.8269 18.0762 10.4924 17.3995 11.145 16.7357C11.333 16.5445 11.5198 16.3544 11.7099 16.1727C14.2172 13.5582 17.0549 12.4832 20.6069 12.892C23.3144 13.2169 25.9938 14.2698 28.1388 16.0097C29.0058 16.7492 30.1479 17.8834 30.037 19.0993C30.0076 19.302 29.9295 19.4685 29.8061 19.6385C29.5731 19.9533 29.1926 20.2637 28.8019 20.5822C28.7504 20.6243 28.6986 20.6665 28.6469 20.7088C28.1976 21.0745 27.7403 21.4612 27.3136 21.8851C25.5942 23.5691 24.4079 25.7632 23.688 28.0668C23.4618 28.7495 23.2997 29.4613 23.1388 30.1681C23.0083 30.7418 22.8784 31.3122 22.7157 31.8611C22.7079 31.8806 22.7006 31.8996 22.6935 31.918C22.6732 31.9706 22.6548 32.0181 22.6351 32.0604C22.6165 32.0302 22.597 31.9956 22.5787 31.9588C22.3676 31.4537 22.1937 30.9361 22.0195 30.4174C21.6837 29.4175 21.3463 28.4134 20.7382 27.4857C20.162 26.5598 19.3538 25.7376 18.3974 25.2205C18.1211 25.0679 17.8144 24.9398 17.5133 24.8501C16.6318 24.5659 15.6456 24.6497 14.743 24.7264C14.6177 24.7371 14.4939 24.7476 14.3722 24.7569C13.0025 24.8839 11.6488 24.7604 10.3358 24.3552C5.09382 22.7038 1.28147 18.2364 1.76594 12.3994C2.11343 7.78985 4.6976 3.39929 8.54282 0.974609C6.4204 2.18463 4.59916 3.95601 3.31897 6.08719C2.20739 7.99482 1.45126 10.1261 1.21242 12.347C0.639667 17.4304 3.29407 21.8828 7.63502 24.205C8.67074 24.7686 9.76863 25.2415 10.9142 25.5128C12.062 25.8075 13.2845 25.8622 14.4391 25.776C14.5872 25.7669 14.7351 25.756 14.8825 25.7452C15.8099 25.6769 16.7201 25.61 17.5688 25.9938C19.5983 26.8882 20.4971 29.1219 21.1185 31.1693C21.1658 31.3021 21.2087 31.4361 21.2515 31.5697C21.4127 32.0731 21.5724 32.5715 21.9561 32.9884C22.3534 33.4089 23.0451 33.3704 23.4072 32.9093C23.6812 32.5575 23.8057 32.1185 23.8929 31.7901C23.9851 31.4387 24.0623 31.0979 24.1383 30.7627C24.191 30.5301 24.2432 30.3001 24.2993 30.0711C24.9297 27.3412 26.1069 24.6754 28.089 22.7155C28.4784 22.3253 28.8983 21.9666 29.3386 21.6056C29.4038 21.5513 29.4703 21.4967 29.5374 21.4415C30.2301 20.8732 30.9959 20.2447 31.1259 19.2659C31.3149 17.5481 29.9996 16.1366 28.8168 15.1409C26.4884 13.2822 23.6257 12.1991 20.7077 11.8811C17.7329 11.5468 14.7073 12.3214 12.4185 14.3606C11.8293 14.8586 11.2899 15.4198 10.7553 15.9759C10.4849 16.2573 10.2157 16.5374 9.94188 16.8074L9.93176 16.8169C9.35111 17.3622 8.77483 17.9034 7.99719 17.9277C6.11709 17.8789 5.14246 15.4227 4.71006 13.8167C4.10674 11.6051 4.16218 9.21654 5.06998 7.09694ZM22.5672 32.1729C22.5662 32.1736 22.5651 32.1749 22.564 32.1767C22.5651 32.1754 22.5662 32.1741 22.5672 32.1729Z" stroke="#FAF0CD" stroke-width="0.550595"/>
<path d="M15.3921 17.4701C16.3859 15.7676 18.9566 15.6044 19.8666 17.4701C18.3328 16.3661 16.9564 16.5559 15.3921 17.4701Z" stroke="#FAF0CD" stroke-width="0.550595"/>
<path d="M31.6738 19.3986C33.9489 19.1728 36.4497 18.6884 38.2154 16.8651C38.8306 16.2156 39.8036 15.1418 39.3761 14.3393C38.8243 13.4139 36.9601 13.1512 35.8662 13.0984C35.3031 13.0983 34.7188 13.1517 34.1562 13.3146C33.6346 13.4495 33.1119 13.675 32.6253 13.9391C32.0279 14.2697 31.4469 14.6872 30.9245 15.1496C30.7427 15.3026 30.5727 15.47 30.3971 15.6358C31.1998 14.4043 32.3438 13.362 33.6748 12.7625C34.4092 12.4292 35.2024 12.2486 35.9719 12.1998C37.6418 12.152 40.4555 12.5389 40.5268 14.5759C40.5109 15.898 39.3861 17.0378 38.3963 17.8812C36.4184 19.4482 33.8669 19.742 31.6734 19.3964L31.6738 19.3986Z" fill="#FAF0CD" stroke="#FAF0CD" stroke-width="0.196641"/>
<path d="M29.3601 25.4982C31.72 27.0054 34.487 28.4393 37.5267 28.0549C38.5963 27.9075 40.322 27.6306 40.4981 26.5505C40.6444 25.2606 39.039 23.6033 38.0227 22.7264C37.4797 22.3007 36.877 21.9092 36.215 21.6375C35.613 21.3705 34.9436 21.1878 34.2806 21.0689C33.4621 20.929 32.5957 20.8834 31.7529 20.9246C31.4653 20.9315 31.1786 20.9607 30.8877 20.9844C32.5647 20.4299 34.4323 20.3119 36.1556 20.7528C37.1082 20.9938 38.0056 21.4231 38.7836 21.959C40.4291 23.1765 42.8591 25.6687 41.4343 27.6438C40.4497 28.8785 38.5292 29.1029 36.9563 29.1498C33.8998 29.1322 31.2236 27.4802 29.3614 25.4958L29.3601 25.4982Z" fill="#FAF0CD" stroke="#FAF0CD" stroke-width="0.196641"/>
<path d="M25.4669 29.3658C26.296 32.0934 27.4799 35.0393 30.025 36.7921C30.9282 37.3996 32.4105 38.3503 33.2296 37.651C34.1595 36.7731 33.9969 34.4392 33.7845 33.0921C33.6438 32.4047 33.4363 31.7032 33.1077 31.0524C32.8215 30.4455 32.4308 29.8571 32.0045 29.3214C31.4738 28.6651 30.8468 28.0481 30.1827 27.5125C29.9607 27.3244 29.7251 27.1538 29.4898 26.9761C31.1115 27.684 32.6001 28.8503 33.6245 30.3427C34.1926 31.1658 34.5992 32.094 34.8478 33.0228C35.3202 35.0508 35.5769 38.5711 33.244 39.1081C31.7145 39.3808 30.1183 38.2594 28.8978 37.2373C26.5953 35.169 25.6187 32.1191 25.4694 29.3648L25.4669 29.3658Z" fill="#FAF0CD" stroke="#FAF0CD" stroke-width="0.196641"/>
<path d="M20.2155 30.8501C19.2716 33.4141 18.4766 36.351 19.436 39.17C19.785 40.1594 20.3845 41.7476 21.4296 41.6909C22.6647 41.5622 23.898 39.6866 24.5176 38.5351C24.8086 37.9287 25.0557 37.2725 25.1793 36.5848C25.3102 35.955 25.3489 35.2786 25.3293 34.6217C25.2986 33.812 25.1702 32.9762 24.9654 32.181C24.9022 31.9082 24.8183 31.6409 24.7387 31.3683C25.5883 32.8524 26.0673 34.6089 25.9949 36.344C25.9575 37.3027 25.7332 38.2477 25.3855 39.1011C24.5716 40.9236 22.7203 43.7592 20.5918 42.8111C19.2426 42.1288 18.6537 40.344 18.2993 38.8537C17.7126 35.9351 18.7295 33.0393 20.2181 30.8508L20.2155 30.8501Z" fill="#FAF0CD" stroke="#FAF0CD" stroke-width="0.196641"/>
</g>
<path d="M49.487 26.5908L48.0125 30.0078C47.4344 31.3491 47.1453 32.2452 47.1453 32.6962C47.1453 33.1819 47.8911 33.4247 49.3829 33.4247H49.6604V34.5H43V33.4247L43.3641 33.4072C44.3587 33.3611 44.9483 33.2397 45.1334 33.0431C45.3298 32.835 45.8155 31.8233 46.5903 30.0078L55.6271 8.5H56.8412L65.8432 30.1292C66.5487 31.6787 67.0458 32.6038 67.3349 32.9043C67.624 33.1934 68.1907 33.3611 69.0347 33.4072L69.4337 33.4247V34.5H59.9112V33.4247H60.2234C61.8423 33.4247 62.6517 33.1934 62.6517 32.7309C62.6517 32.0486 62.4089 31.141 61.9232 30.0078L60.4836 26.5908H49.487ZM50.0592 25.1858H59.8591L54.9852 13.4954L50.0592 25.1858ZM70.1795 34.5V33.4247L70.509 33.4072C71.9083 33.3148 72.7349 33.1182 72.9893 32.8176C73.2553 32.5054 73.3883 31.5688 73.3883 30.0078V13.322C73.3883 11.7493 73.2553 10.8127 72.9893 10.512C72.7349 10.2114 71.9083 10.0148 70.509 9.92234L70.1795 9.88769V8.82955H78.401L81.0894 8.76017L82.3382 8.74282C86.3623 8.74282 89.4497 9.80671 91.6005 11.9344C93.7397 14.0619 94.8093 17.1203 94.8093 21.1098C94.8093 25.2379 93.7051 28.5044 91.4964 30.9097C89.2877 33.3033 86.2813 34.5 82.477 34.5H70.1795ZM77.0307 9.99164V30.0078C77.0307 31.5688 77.1869 32.4592 77.4989 32.6788C78.1234 33.1067 79.3375 33.3205 81.1415 33.3205C84.4138 33.3205 86.8652 32.3436 88.4957 30.3894C90.1377 28.4236 90.9586 25.4806 90.9586 21.5606C90.9586 17.4789 90.0799 14.5303 88.3223 12.7149C86.5647 10.8995 83.7143 9.99164 79.7712 9.99164H77.0307ZM103.222 26.5908L101.747 30.0078C101.169 31.3491 100.88 32.2452 100.88 32.6962C100.88 33.1819 101.626 33.4247 103.117 33.4247H103.395V34.5H96.7346V33.4247L97.0987 33.4072C98.0933 33.3611 98.6829 33.2397 98.868 33.0431C99.0647 32.835 99.5503 31.8233 100.325 30.0078L109.362 8.5H110.576L119.578 30.1292C120.283 31.6787 120.78 32.6038 121.07 32.9043C121.359 33.1934 121.925 33.3611 122.769 33.4072L123.168 33.4247V34.5H113.646V33.4247H113.958C115.577 33.4247 116.386 33.1934 116.386 32.7309C116.386 32.0486 116.144 31.141 115.658 30.0078L114.218 26.5908H103.222ZM103.794 25.1858H113.594L108.72 13.4954L103.794 25.1858ZM130.731 23.7982V30.0078C130.731 31.5457 130.869 32.4822 131.147 32.8176C131.424 33.1413 132.251 33.3379 133.627 33.4072L134.373 33.4247V34.5H123.914V33.4247L124.244 33.4072C125.643 33.3148 126.47 33.1182 126.724 32.8176C126.99 32.5054 127.123 31.5688 127.123 30.0078V13.322C127.123 11.7493 126.99 10.8127 126.724 10.512C126.47 10.2114 125.643 10.0148 124.244 9.92234L123.914 9.88769V8.82955H131.546L134.078 8.74282L135.275 8.70813C140.27 8.70813 142.768 10.9688 142.768 15.49C142.768 18.2537 141.855 20.3293 140.028 21.7169C138.212 23.1044 135.477 23.7982 131.823 23.7982H130.731ZM130.731 22.6187H132.031C134.333 22.6187 136.056 22.0291 137.2 20.8496C138.345 19.6702 138.917 17.9068 138.917 15.5593C138.917 13.559 138.478 12.1308 137.599 11.2753C136.732 10.4195 135.275 9.99164 133.228 9.99164H130.731V22.6187ZM153.47 10.2172H149.376C148.417 10.2172 147.578 10.2692 146.862 10.3732C146.387 10.4427 146.15 10.8705 146.15 11.6568C146.15 12.2464 146.139 12.7553 146.116 13.1832L146.098 13.5301H144.277V8.82955H166.323V13.5301H164.501L164.484 13.1832C164.45 12.7553 164.432 12.2464 164.432 11.6568C164.432 10.8705 164.2 10.4427 163.739 10.3732C163.01 10.2692 162.171 10.2172 161.223 10.2172H157.112V30.0078C157.112 31.5457 157.251 32.4822 157.529 32.8176C157.806 33.1413 158.633 33.3379 160.009 33.4072L160.755 33.4247V34.5H149.845V33.4247L150.591 33.4072C151.967 33.3379 152.788 33.1413 153.054 32.8176C153.331 32.4822 153.47 31.5457 153.47 30.0078V10.2172Z" fill="white"/>
<defs>
<clipPath id="clip0_3997_3809">
<rect width="43" height="43" fill="white"/>
</clipPath>
</defs>
</svg>
