<svg width="1652" height="867" viewBox="0 0 1652 867" fill="none" xmlns="http://www.w3.org/2000/svg">
<g filter="url(#filter0_d_4091_1993)">
<rect x="10" width="1611.76" height="826.462" rx="24" fill="#29452F"/>
<path fill-rule="evenodd" clip-rule="evenodd" d="M234.28 280.561C242.217 261.624 255.761 245.168 271.777 232.809C242.075 253.137 219.747 288.115 223.831 325.927C225.657 345.186 232.948 373.254 251.848 381.762C257.153 384.118 263.718 384.222 269.043 381.825C276.662 378.385 282.591 372.355 288.406 366.441L288.407 366.44C290.082 364.737 291.746 363.044 293.44 361.425C315.779 338.13 341.062 328.552 372.71 332.194C396.834 335.089 420.706 344.47 439.817 359.972C447.543 366.561 457.719 376.668 456.73 387.501C456.468 389.306 455.772 390.79 454.673 392.305C452.597 395.11 449.207 397.874 445.726 400.712C445.267 401.087 444.805 401.463 444.346 401.841C440.342 405.099 436.267 408.544 432.465 412.321C417.146 427.325 406.576 446.874 400.162 467.399C398.147 473.482 396.703 479.824 395.269 486.121L395.269 486.123C394.106 491.234 392.949 496.315 391.499 501.205C391.476 501.263 391.454 501.32 391.432 501.376L391.383 501.5L391.301 501.712C391.12 502.181 390.957 502.604 390.781 502.981C390.615 502.712 390.441 502.404 390.278 502.077C388.397 497.575 386.848 492.964 385.296 488.342C382.303 479.434 379.298 470.488 373.88 462.221C368.746 453.972 361.545 446.646 353.023 442.039C350.563 440.68 347.83 439.538 345.147 438.739C337.293 436.207 328.505 436.953 320.464 437.637C319.347 437.732 318.244 437.826 317.16 437.909C304.957 439.04 292.895 437.94 281.196 434.329C234.491 419.616 200.524 379.812 204.841 327.805C207.937 286.735 230.961 247.616 265.221 226.013C246.311 236.794 230.084 252.576 218.678 271.565C208.774 288.562 202.037 307.55 199.909 327.338C194.806 372.631 218.456 412.3 257.133 432.991C266.361 438.013 276.143 442.226 286.35 444.643C296.576 447.269 307.468 447.756 317.755 446.988C319.075 446.907 320.393 446.81 321.707 446.714C329.97 446.106 338.079 445.509 345.641 448.929C363.724 456.898 371.732 476.8 377.268 495.042C377.689 496.225 378.072 497.419 378.453 498.609C379.89 503.094 381.312 507.535 384.732 511.25C388.271 514.995 394.434 514.653 397.661 510.544C400.101 507.41 401.211 503.498 401.987 500.572C402.809 497.442 403.497 494.407 404.174 491.42L404.174 491.419C404.644 489.346 405.108 487.297 405.608 485.257C411.226 460.934 421.714 437.183 439.373 419.719C442.843 416.243 446.584 413.047 450.508 409.831C451.088 409.347 451.68 408.861 452.279 408.37L452.28 408.369C458.451 403.305 465.274 397.705 466.432 388.984C468.117 373.679 456.397 361.103 445.858 352.231C425.113 335.67 399.607 326.02 373.607 323.188C347.103 320.21 320.145 327.11 299.753 345.279C294.503 349.716 289.697 354.716 284.935 359.671L284.933 359.673C282.524 362.18 280.126 364.675 277.687 367.08L277.596 367.165C272.423 372.023 267.289 376.845 260.36 377.062C243.608 376.626 234.925 354.742 231.072 340.433C225.697 320.728 226.191 299.446 234.28 280.561ZM390.176 503.983C390.167 503.99 390.157 504.001 390.147 504.017C390.157 504.006 390.166 503.995 390.176 503.983Z" fill="#FAF0CD"/>
<path d="M326.247 372.984C335.102 357.814 358.005 356.361 366.114 372.984C352.448 363.147 340.185 364.839 326.247 372.984Z" fill="#FAF0CD"/>
<path d="M471.313 390.166L471.389 390.159C490.916 393.219 513.611 390.589 531.21 376.646C540.029 369.132 550.051 358.977 550.192 347.198C549.557 329.048 524.488 325.601 509.61 326.027C502.753 326.461 495.686 328.071 489.142 331.04C477.284 336.381 467.091 345.668 459.939 356.641C460.27 356.328 460.599 356.014 460.927 355.702L460.935 355.695L460.936 355.694L460.938 355.692L460.939 355.691C462.157 354.53 463.365 353.38 464.638 352.308C469.292 348.188 474.469 344.469 479.791 341.523C484.127 339.17 488.784 337.162 493.432 335.959C498.444 334.508 503.65 334.032 508.667 334.032C518.413 334.503 535.024 336.844 539.939 345.089C543.749 352.239 535.079 361.806 529.598 367.593C513.885 383.818 491.64 388.144 471.389 390.159L471.31 390.146L471.313 390.166Z" fill="#FAF0CD"/>
<path d="M450.779 444.562L450.7 444.511L450.712 444.49L450.779 444.562Z" fill="#FAF0CD"/>
<path d="M450.779 444.562C471.788 457.972 496.413 470.712 523.464 467.291C532.993 465.978 548.369 463.511 549.937 453.887C551.241 442.395 536.938 427.629 527.883 419.816C523.045 416.022 517.675 412.535 511.777 410.114C506.412 407.734 500.448 406.107 494.541 405.047C487.249 403.801 479.528 403.395 472.019 403.762C470.004 403.81 467.994 403.982 465.966 404.155C465.416 404.202 464.864 404.249 464.31 404.294C479.253 399.354 495.893 398.302 511.246 402.231C519.734 404.379 527.73 408.203 534.661 412.978C549.323 423.826 570.974 446.031 558.279 463.628C549.506 474.63 532.395 476.629 518.38 477.047C491.185 476.89 467.368 462.211 450.779 444.562Z" fill="#FAF0CD"/>
<path d="M416.012 478.972L416.039 479.063C417.388 503.577 426.094 530.702 446.581 549.106C457.455 558.212 471.677 568.204 485.305 565.775C506.09 560.99 503.803 529.624 499.593 511.555C497.379 503.28 493.755 495.009 488.694 487.676C479.567 474.379 466.304 463.987 451.855 457.68C452.302 458.018 452.75 458.353 453.196 458.688C454.842 459.92 456.473 461.141 458.029 462.46C463.946 467.231 469.532 472.729 474.26 478.576C478.059 483.35 481.54 488.592 484.09 494C487.017 499.798 488.867 506.049 490.12 512.173C492.012 524.175 493.461 544.97 485.176 552.792C477.877 559.023 464.671 550.552 456.624 545.139C433.975 529.541 423.425 503.34 416.039 479.063L416.034 478.963L416.012 478.972Z" fill="#FAF0CD"/>
<path d="M369.192 492.281C369.202 492.253 369.213 492.224 369.223 492.195L369.246 492.202C369.228 492.228 369.21 492.255 369.192 492.281Z" fill="#FAF0CD"/>
<path d="M362.278 566.325C353.74 541.239 360.795 515.105 369.192 492.281C355.958 511.771 346.93 537.537 352.151 563.506C355.307 576.784 360.554 592.687 372.575 598.766C391.539 607.213 408.034 581.948 415.286 565.71C418.384 558.107 420.383 549.686 420.717 541.145C421.361 525.686 417.094 510.036 409.524 496.812C409.675 497.331 409.828 497.847 409.981 498.362C410.543 500.26 411.101 502.141 411.543 504.053C413.368 511.138 414.512 518.585 414.786 525.799C414.96 531.653 414.616 537.679 413.449 543.29C412.348 549.418 410.147 555.265 407.553 560.667C402.033 570.927 391.045 587.638 380.04 588.784C370.729 589.29 365.387 575.139 362.278 566.325Z" fill="#FAF0CD"/>
<path fill-rule="evenodd" clip-rule="evenodd" d="M622.73 410.802L630.177 393.544H685.716L692.987 410.802C695.44 416.525 696.666 421.109 696.666 424.555C696.666 426.891 692.578 428.059 684.402 428.059H682.825V433.491H730.919V428.059L728.904 427.972C724.641 427.738 721.779 426.891 720.319 425.431C718.859 423.913 716.348 419.241 712.785 411.415L667.32 302.175H661.188L615.547 410.802C611.634 419.971 609.181 425.081 608.189 426.132C607.254 427.125 604.276 427.738 599.253 427.972L597.414 428.059V433.491H631.053V428.059H629.651C622.117 428.059 618.35 426.833 618.35 424.38C618.35 422.102 619.81 417.576 622.73 410.802ZM682.562 386.448H633.067L657.946 327.405L682.562 386.448Z" fill="white"/>
<path fill-rule="evenodd" clip-rule="evenodd" d="M734.686 428.059V433.491H796.795C816.009 433.491 831.193 427.446 842.348 415.357C853.503 403.21 859.08 386.711 859.08 365.862C859.08 345.714 853.678 330.266 842.874 319.521C832.011 308.775 816.418 303.402 796.094 303.402L789.787 303.49L776.209 303.84H734.686V309.184L736.35 309.359C743.417 309.826 747.592 310.819 748.877 312.337C750.22 313.856 750.892 318.586 750.892 326.529V410.802C750.892 418.686 750.22 423.416 748.877 424.993C747.592 426.512 743.417 427.504 736.35 427.972L734.686 428.059ZM769.288 410.802V309.709H783.129C803.044 309.709 817.44 314.294 826.317 323.463C835.194 332.632 839.632 347.524 839.632 368.14C839.632 387.938 835.486 402.801 827.193 412.729C818.958 422.599 806.577 427.534 790.05 427.534C780.939 427.534 774.807 426.453 771.654 424.292C770.077 423.183 769.288 418.686 769.288 410.802Z" fill="white"/>
<path fill-rule="evenodd" clip-rule="evenodd" d="M894.121 410.802L901.567 393.544H957.106L964.377 410.802C966.83 416.525 968.057 421.109 968.057 424.555C968.057 426.891 963.969 428.059 955.792 428.059H954.216V433.491H1002.31V428.059L1000.29 427.972C996.031 427.738 993.169 426.891 991.709 425.431C990.249 423.913 987.738 419.241 984.175 411.415L938.71 302.175H932.578L886.937 410.802C883.025 419.971 880.572 425.081 879.579 426.132C878.644 427.125 875.666 427.738 870.643 427.972L868.804 428.059V433.491H902.443V428.059H901.041C893.508 428.059 889.741 426.833 889.741 424.38C889.741 422.102 891.201 417.576 894.121 410.802ZM953.953 386.448H904.458L929.337 327.405L953.953 386.448Z" fill="white"/>
<path fill-rule="evenodd" clip-rule="evenodd" d="M1040.5 410.802V379.44H1046.02C1064.48 379.44 1078.29 375.936 1087.46 368.928C1096.69 361.92 1101.3 351.437 1101.3 337.479C1101.3 314.644 1088.68 303.227 1063.45 303.227L1057.41 303.402L1044.62 303.84H1006.08V309.184L1007.74 309.359C1014.81 309.826 1018.98 310.819 1020.27 312.337C1021.61 313.856 1022.28 318.586 1022.28 326.529V410.802C1022.28 418.686 1021.61 423.416 1020.27 424.993C1018.98 426.512 1014.81 427.504 1007.74 427.972L1006.08 428.059V433.491H1058.9V428.059L1055.13 427.972C1048.18 427.621 1044.01 426.628 1042.61 424.993C1041.2 423.299 1040.5 418.569 1040.5 410.802ZM1047.07 373.483H1040.5V309.709H1053.12C1063.45 309.709 1070.81 311.87 1075.19 316.192C1079.63 320.513 1081.85 327.726 1081.85 337.829C1081.85 349.685 1078.96 358.591 1073.18 364.548C1067.4 370.505 1058.7 373.483 1047.07 373.483Z" fill="white"/>
<path d="M1134.68 310.848H1155.35V410.802C1155.35 418.569 1154.65 423.299 1153.25 424.993C1151.9 426.628 1147.76 427.621 1140.81 427.972L1137.04 428.059V433.491H1192.14V428.059L1188.38 427.972C1181.43 427.621 1177.25 426.628 1175.85 424.993C1174.45 423.299 1173.75 418.569 1173.75 410.802V310.848H1194.51C1199.3 310.848 1203.53 311.111 1207.21 311.636C1209.55 311.987 1210.71 314.148 1210.71 318.119C1210.71 321.097 1210.8 323.667 1210.98 325.828L1211.06 327.58H1220.26V303.84H1108.92V327.58H1118.12L1118.21 325.828C1118.32 323.667 1118.38 321.097 1118.38 318.119C1118.38 314.148 1119.58 311.987 1121.97 311.636C1125.59 311.111 1129.83 310.848 1134.68 310.848Z" fill="white"/>
<path fill-rule="evenodd" clip-rule="evenodd" d="M610.041 485.276L597.157 523.491H602.29L605.755 512.814H620.358L623.822 523.491H629.186L616.303 485.276H610.041ZM613.043 490.46L618.946 508.477H607.166L613.043 490.46Z" fill="white"/>
<path d="M632.523 523.491H637.348V483.556H632.523V523.491Z" fill="white"/>
<path d="M642.198 523.491H663.269V519.461H647.921L662.987 498.262V494.823H642.814V498.801H657.186L642.198 519.923V523.491Z" fill="white"/>
<path d="M685.494 523.491H690.319V504.884C690.319 501.359 689.524 498.673 687.933 496.825C686.341 494.96 684.134 494.028 681.311 494.028C679.754 494.028 678.274 494.37 676.871 495.054C675.468 495.739 674.048 496.722 672.611 498.006V483.556H667.786V523.491H672.611V502.086C673.826 501.06 675.066 500.23 676.332 499.597C677.615 498.947 678.856 498.622 680.053 498.622C681.268 498.622 682.226 498.801 682.928 499.16C683.629 499.503 684.177 500.033 684.57 500.752C684.93 501.436 685.169 502.351 685.289 503.498C685.426 504.627 685.494 505.85 685.494 507.168V523.491Z" fill="white"/>
<path fill-rule="evenodd" clip-rule="evenodd" d="M698.891 520.308C701.424 522.875 704.974 524.158 709.542 524.158C710.706 524.158 711.664 524.089 712.417 523.952C713.187 523.816 714.042 523.619 714.983 523.362C715.65 523.174 716.403 522.917 717.241 522.592C718.08 522.25 718.781 521.968 719.346 521.745V516.484H719.064C718.67 516.809 718.174 517.16 717.575 517.536C716.976 517.896 716.241 518.272 715.368 518.666C714.547 519.042 713.623 519.35 712.596 519.589C711.587 519.829 710.552 519.949 709.491 519.949C706.531 519.949 704.212 519.068 702.536 517.305C700.859 515.543 700.021 512.994 700.021 509.657H719.885V507.04C719.885 504.747 719.611 502.813 719.064 501.239C718.516 499.648 717.729 498.305 716.703 497.21C715.676 496.115 714.478 495.311 713.109 494.798C711.741 494.284 710.167 494.028 708.387 494.028C704.435 494.028 701.235 495.413 698.789 498.185C696.342 500.94 695.119 504.653 695.119 509.324C695.119 514.063 696.376 517.725 698.891 520.308ZM714.726 502.6C715 503.541 715.154 504.661 715.188 505.962H700.021C700.123 504.747 700.363 503.686 700.739 502.779C701.116 501.855 701.663 501.017 702.382 500.264C703.117 499.528 703.93 498.972 704.82 498.596C705.727 498.202 706.822 498.006 708.105 498.006C709.405 498.006 710.492 498.194 711.364 498.57C712.254 498.947 712.981 499.494 713.546 500.213C714.059 500.863 714.453 501.659 714.726 502.6Z" fill="white"/>
<path d="M724.864 523.491H729.689V494.823H724.864V523.491Z" fill="white"/>
<path d="M724.53 490.024H730.022V485.019H724.53V490.024Z" fill="white"/>
<path d="M769.315 506.911V523.491H774.14V504.627C774.14 502.659 773.926 501.025 773.498 499.725C773.088 498.425 772.497 497.338 771.727 496.466C770.975 495.61 770.093 494.994 769.084 494.618C768.074 494.224 766.954 494.028 765.722 494.028C764.096 494.028 762.591 494.447 761.205 495.285C759.819 496.124 758.399 497.355 756.945 498.981C756.26 497.219 755.259 495.952 753.942 495.182C752.641 494.413 751.144 494.028 749.451 494.028C747.962 494.028 746.593 494.378 745.344 495.08C744.112 495.764 742.863 496.739 741.597 498.006V494.823H736.772V523.491H741.597V502.086C742.675 501.077 743.787 500.247 744.934 499.597C746.08 498.947 747.175 498.622 748.219 498.622C749.297 498.622 750.152 498.784 750.785 499.109C751.418 499.434 751.906 499.939 752.248 500.623C752.573 501.256 752.787 502.138 752.89 503.267C752.992 504.379 753.044 505.594 753.044 506.911V523.491H757.869V504.627C757.869 504.08 757.851 503.609 757.817 503.216C757.8 502.805 757.783 502.454 757.766 502.163C758.981 501.017 760.153 500.144 761.282 499.545C762.428 498.93 763.498 498.622 764.49 498.622C765.568 498.622 766.423 498.784 767.056 499.109C767.69 499.434 768.177 499.939 768.519 500.623C768.844 501.256 769.058 502.138 769.161 503.267C769.264 504.379 769.315 505.594 769.315 506.911Z" fill="white"/>
<path fill-rule="evenodd" clip-rule="evenodd" d="M782.712 520.308C785.244 522.875 788.794 524.158 793.363 524.158C794.526 524.158 795.484 524.089 796.237 523.952C797.007 523.816 797.862 523.619 798.804 523.362C799.471 523.174 800.224 522.917 801.062 522.592C801.9 522.25 802.602 521.968 803.167 521.745V516.484H802.884C802.491 516.809 801.994 517.16 801.396 517.536C800.797 517.896 800.061 518.272 799.188 518.666C798.367 519.042 797.443 519.35 796.417 519.589C795.407 519.829 794.372 519.949 793.311 519.949C790.351 519.949 788.033 519.068 786.356 517.305C784.679 515.543 783.841 512.994 783.841 509.657H803.705V507.04C803.705 504.747 803.432 502.813 802.884 501.239C802.337 499.648 801.55 498.305 800.523 497.21C799.496 496.115 798.299 495.311 796.93 494.798C795.561 494.284 793.987 494.028 792.208 494.028C788.255 494.028 785.056 495.413 782.609 498.185C780.162 500.94 778.939 504.653 778.939 509.324C778.939 514.063 780.197 517.725 782.712 520.308ZM798.547 502.6C798.821 503.541 798.975 504.661 799.009 505.962H783.841C783.944 504.747 784.183 503.686 784.56 502.779C784.936 501.855 785.484 501.017 786.202 500.264C786.938 499.528 787.751 498.972 788.64 498.596C789.547 498.202 790.642 498.006 791.925 498.006C793.226 498.006 794.312 498.194 795.185 498.57C796.075 498.947 796.802 499.494 797.366 500.213C797.88 500.863 798.273 501.659 798.547 502.6Z" fill="white"/>
<path d="M823.518 500.007H823.775V494.977C823.467 494.926 823.185 494.892 822.928 494.875C822.689 494.84 822.321 494.823 821.825 494.823C820.593 494.823 819.318 495.148 818.001 495.798C816.7 496.431 815.169 497.526 813.407 499.083V494.823H808.582V523.491H813.407V503.138C814.553 502.026 815.768 501.188 817.051 500.623C818.334 500.059 819.626 499.776 820.926 499.776C821.491 499.776 821.97 499.794 822.364 499.828C822.774 499.845 823.159 499.905 823.518 500.007Z" fill="white"/>
<path d="M826.342 509.093H840.816V504.447H826.342V509.093Z" fill="white"/>
<path fill-rule="evenodd" clip-rule="evenodd" d="M875.002 513.866C876.422 511.06 877.132 507.912 877.132 504.422C877.132 500.692 876.456 497.484 875.104 494.798C873.753 492.094 871.845 489.93 869.381 488.304C867.944 487.363 866.199 486.628 864.146 486.097C862.109 485.55 859.295 485.276 855.702 485.276H847.002V523.491H855.805C858.901 523.491 861.442 523.285 863.427 522.875C865.429 522.464 867.396 521.651 869.33 520.436C871.708 518.862 873.599 516.672 875.002 513.866ZM870.382 496.825C871.357 498.895 871.845 501.402 871.845 504.345C871.845 507.322 871.4 509.811 870.51 511.813C869.621 513.798 868.295 515.389 866.532 516.587C865.129 517.562 863.581 518.229 861.887 518.589C860.193 518.948 858.217 519.128 855.959 519.128H852.083V489.639H855.959C858.251 489.639 860.167 489.819 861.707 490.178C863.247 490.537 864.693 491.127 866.045 491.949C867.961 493.112 869.407 494.738 870.382 496.825Z" fill="white"/>
<path fill-rule="evenodd" clip-rule="evenodd" d="M884.087 520.308C886.619 522.875 890.169 524.158 894.738 524.158C895.901 524.158 896.859 524.089 897.612 523.952C898.382 523.816 899.238 523.619 900.179 523.362C900.846 523.174 901.599 522.917 902.437 522.592C903.275 522.25 903.977 521.968 904.542 521.745V516.484H904.259C903.866 516.809 903.37 517.16 902.771 517.536C902.172 517.896 901.436 518.272 900.564 518.666C899.742 519.042 898.818 519.35 897.792 519.589C896.782 519.829 895.747 519.949 894.686 519.949C891.726 519.949 889.408 519.068 887.731 517.305C886.055 515.543 885.216 512.994 885.216 509.657H905.081V507.04C905.081 504.747 904.807 502.813 904.259 501.239C903.712 499.648 902.925 498.305 901.898 497.21C900.872 496.115 899.674 495.311 898.305 494.798C896.936 494.284 895.362 494.028 893.583 494.028C889.63 494.028 886.431 495.413 883.984 498.185C881.538 500.94 880.314 504.653 880.314 509.324C880.314 514.063 881.572 517.725 884.087 520.308ZM899.922 502.6C900.196 503.541 900.35 504.661 900.384 505.962H885.216C885.319 504.747 885.558 503.686 885.935 502.779C886.311 501.855 886.859 501.017 887.577 500.264C888.313 499.528 889.126 498.972 890.015 498.596C890.922 498.202 892.017 498.006 893.3 498.006C894.601 498.006 895.687 498.194 896.56 498.57C897.45 498.947 898.177 499.494 898.741 500.213C899.255 500.863 899.648 501.659 899.922 502.6Z" fill="white"/>
<path d="M942.5 506.911V523.491H947.324V504.627C947.324 502.659 947.111 501.025 946.683 499.725C946.272 498.425 945.682 497.338 944.912 496.466C944.159 495.61 943.278 494.994 942.269 494.618C941.259 494.224 940.138 494.028 938.906 494.028C937.281 494.028 935.775 494.447 934.39 495.285C933.004 496.124 931.583 497.355 930.129 498.981C929.445 497.219 928.444 495.952 927.126 495.182C925.826 494.413 924.329 494.028 922.635 494.028C921.147 494.028 919.778 494.378 918.529 495.08C917.297 495.764 916.048 496.739 914.782 498.006V494.823H909.957V523.491H914.782V502.086C915.86 501.077 916.972 500.247 918.118 499.597C919.265 498.947 920.36 498.622 921.403 498.622C922.481 498.622 923.337 498.784 923.97 499.109C924.603 499.434 925.09 499.939 925.433 500.623C925.758 501.256 925.971 502.138 926.074 503.267C926.177 504.379 926.228 505.594 926.228 506.911V523.491H931.053V504.627C931.053 504.08 931.036 503.609 931.002 503.216C930.985 502.805 930.968 502.454 930.95 502.163C932.165 501.017 933.337 500.144 934.466 499.545C935.613 498.93 936.682 498.622 937.675 498.622C938.752 498.622 939.608 498.784 940.241 499.109C940.874 499.434 941.362 499.939 941.704 500.623C942.029 501.256 942.243 502.138 942.346 503.267C942.448 504.379 942.5 505.594 942.5 506.911Z" fill="white"/>
<path fill-rule="evenodd" clip-rule="evenodd" d="M955.896 520.308C958.429 522.875 961.979 524.158 966.547 524.158C967.711 524.158 968.669 524.089 969.422 523.952C970.192 523.816 971.047 523.619 971.988 523.362C972.655 523.174 973.408 522.917 974.247 522.592C975.085 522.25 975.786 521.968 976.351 521.745V516.484H976.069C975.675 516.809 975.179 517.16 974.58 517.536C973.981 517.896 973.246 518.272 972.373 518.666C971.552 519.042 970.628 519.35 969.601 519.589C968.592 519.829 967.557 519.949 966.496 519.949C963.536 519.949 961.218 519.068 959.541 517.305C957.864 515.543 957.026 512.994 957.026 509.657H976.89V507.04C976.89 504.747 976.616 502.813 976.069 501.239C975.521 499.648 974.734 498.305 973.708 497.21C972.681 496.115 971.483 495.311 970.115 494.798C968.746 494.284 967.172 494.028 965.392 494.028C961.44 494.028 958.24 495.413 955.794 498.185C953.347 500.94 952.124 504.653 952.124 509.324C952.124 514.063 953.381 517.725 955.896 520.308ZM971.731 502.6C972.005 503.541 972.159 504.661 972.193 505.962H957.026C957.128 504.747 957.368 503.686 957.744 502.779C958.121 501.855 958.668 501.017 959.387 500.264C960.122 499.528 960.935 498.972 961.825 498.596C962.732 498.202 963.827 498.006 965.11 498.006C966.41 498.006 967.497 498.194 968.369 498.57C969.259 498.947 969.986 499.494 970.551 500.213C971.064 500.863 971.458 501.659 971.731 502.6Z" fill="white"/>
<path d="M999.475 523.491H1004.3V504.884C1004.3 501.359 1003.5 498.673 1001.91 496.825C1000.32 494.96 998.115 494.028 995.292 494.028C993.735 494.028 992.255 494.37 990.852 495.054C989.449 495.739 988.028 496.722 986.591 498.006V494.823H981.766V523.491H986.591V502.086C987.806 501.06 989.047 500.23 990.313 499.597C991.596 498.947 992.836 498.622 994.034 498.622C995.249 498.622 996.207 498.801 996.908 499.16C997.61 499.503 998.157 500.033 998.551 500.752C998.91 501.436 999.15 502.351 999.27 503.498C999.406 504.627 999.475 505.85 999.475 507.168V523.491Z" fill="white"/>
<path d="M1013.59 521.822C1015.06 523.311 1017.11 524.055 1019.75 524.055C1020.54 524.055 1021.39 523.978 1022.32 523.824C1023.26 523.687 1024.18 523.491 1025.09 523.234V518.897H1024.81C1024.48 519.051 1023.95 519.247 1023.21 519.487C1022.48 519.709 1021.72 519.82 1020.93 519.82C1019.82 519.82 1018.94 519.675 1018.29 519.384C1017.64 519.076 1017.17 518.623 1016.88 518.024C1016.53 517.34 1016.34 516.604 1016.29 515.817C1016.23 515.03 1016.21 513.909 1016.21 512.455V498.827H1025.09V494.823H1016.21V486.585H1011.38V494.823H1008.12V498.827H1011.38V514.713C1011.38 517.947 1012.12 520.317 1013.59 521.822Z" fill="white"/>
<path d="M1028.78 523.491H1033.61V494.823H1028.78V523.491Z" fill="white"/>
<path d="M1028.45 490.024H1033.94V485.019H1028.45V490.024Z" fill="white"/>
<path fill-rule="evenodd" clip-rule="evenodd" d="M1055.12 521.668C1055.78 521.138 1056.31 520.727 1056.71 520.436V523.491H1061.51V503.883C1061.51 502.086 1061.25 500.563 1060.74 499.314C1060.22 498.065 1059.44 497.047 1058.4 496.26C1057.32 495.456 1056.11 494.9 1054.76 494.592C1053.4 494.284 1051.75 494.13 1049.78 494.13C1048.15 494.13 1046.51 494.284 1044.85 494.592C1043.19 494.9 1041.92 495.182 1041.03 495.439V500.341H1041.31C1042.81 499.708 1044.32 499.229 1045.83 498.904C1047.33 498.562 1048.64 498.391 1049.75 498.391C1050.69 498.391 1051.61 498.459 1052.5 498.596C1053.39 498.716 1054.14 498.972 1054.76 499.366C1055.37 499.742 1055.85 500.281 1056.19 500.983C1056.54 501.667 1056.71 502.574 1056.71 503.703V504.627C1054.17 504.764 1051.81 504.978 1049.62 505.269C1047.43 505.542 1045.53 506.047 1043.93 506.783C1042.11 507.604 1040.79 508.716 1039.95 510.119C1039.11 511.505 1038.69 513.19 1038.69 515.175C1038.69 516.458 1038.92 517.682 1039.38 518.845C1039.85 519.992 1040.46 520.958 1041.23 521.745C1042.04 522.549 1042.97 523.174 1044.03 523.619C1045.09 524.064 1046.21 524.286 1047.39 524.286C1048.83 524.286 1049.94 524.166 1050.73 523.927C1051.53 523.687 1052.36 523.345 1053.22 522.9C1053.83 522.592 1054.47 522.182 1055.12 521.668ZM1048.11 509.657C1049.19 509.332 1050.6 509.084 1052.34 508.913C1054.11 508.725 1055.56 508.579 1056.71 508.477V516.433C1055.63 517.391 1054.47 518.204 1053.24 518.871C1052.01 519.521 1050.63 519.846 1049.11 519.846C1047.33 519.846 1045.98 519.427 1045.06 518.589C1044.13 517.75 1043.67 516.51 1043.67 514.867C1043.67 513.413 1044.09 512.284 1044.93 511.479C1045.77 510.658 1046.83 510.051 1048.11 509.657Z" fill="white"/>
<path fill-rule="evenodd" clip-rule="evenodd" d="M1108.34 501.522C1108.94 500.033 1109.24 498.459 1109.24 496.799C1109.24 494.678 1108.84 492.873 1108.04 491.384C1107.23 489.878 1106.12 488.638 1104.7 487.663C1103.48 486.824 1102.08 486.217 1100.49 485.841C1098.9 485.464 1096.97 485.276 1094.72 485.276H1085.12V523.491H1090.2V509.247H1094.51C1097.23 509.247 1099.48 508.913 1101.26 508.246C1103.04 507.578 1104.59 506.595 1105.91 505.294C1106.95 504.251 1107.76 502.993 1108.34 501.522ZM1103.26 493.489C1103.72 494.464 1103.96 495.61 1103.96 496.928C1103.96 498.142 1103.78 499.203 1103.44 500.11C1103.1 501.017 1102.55 501.855 1101.8 502.625C1100.96 503.481 1099.91 504.08 1098.64 504.422C1097.38 504.747 1095.72 504.909 1093.66 504.909H1090.2V489.639H1094.41C1096 489.639 1097.33 489.75 1098.39 489.973C1099.46 490.195 1100.41 490.571 1101.21 491.102C1102.13 491.718 1102.82 492.513 1103.26 493.489Z" fill="white"/>
<path fill-rule="evenodd" clip-rule="evenodd" d="M1128.16 521.668C1128.82 521.138 1129.35 520.727 1129.75 520.436V523.491H1134.55V503.883C1134.55 502.086 1134.29 500.563 1133.78 499.314C1133.26 498.065 1132.49 497.047 1131.44 496.26C1130.36 495.456 1129.15 494.9 1127.8 494.592C1126.45 494.284 1124.79 494.13 1122.82 494.13C1121.19 494.13 1119.55 494.284 1117.89 494.592C1116.23 494.9 1114.96 495.182 1114.07 495.439V500.341H1114.35C1115.86 499.708 1117.36 499.229 1118.87 498.904C1120.37 498.562 1121.68 498.391 1122.79 498.391C1123.73 498.391 1124.65 498.459 1125.54 498.596C1126.43 498.716 1127.18 498.972 1127.8 499.366C1128.41 499.742 1128.89 500.281 1129.23 500.983C1129.58 501.667 1129.75 502.574 1129.75 503.703V504.627C1127.22 504.764 1124.85 504.978 1122.66 505.269C1120.47 505.542 1118.58 506.047 1116.97 506.783C1115.15 507.604 1113.83 508.716 1112.99 510.119C1112.15 511.505 1111.73 513.19 1111.73 515.175C1111.73 516.458 1111.96 517.682 1112.42 518.845C1112.89 519.992 1113.5 520.958 1114.27 521.745C1115.08 522.549 1116.01 523.174 1117.07 523.619C1118.13 524.064 1119.25 524.286 1120.43 524.286C1121.87 524.286 1122.98 524.166 1123.77 523.927C1124.57 523.687 1125.4 523.345 1126.26 522.9C1126.87 522.592 1127.51 522.182 1128.16 521.668ZM1121.15 509.657C1122.23 509.332 1123.64 509.084 1125.39 508.913C1127.15 508.725 1128.6 508.579 1129.75 508.477V516.433C1128.67 517.391 1127.52 518.204 1126.28 518.871C1125.05 519.521 1123.67 519.846 1122.15 519.846C1120.37 519.846 1119.02 519.427 1118.1 518.589C1117.17 517.75 1116.71 516.51 1116.71 514.867C1116.71 513.413 1117.13 512.284 1117.97 511.479C1118.81 510.658 1119.87 510.051 1121.15 509.657Z" fill="white"/>
<path d="M1143.86 521.822C1145.34 523.311 1147.39 524.055 1150.02 524.055C1150.81 524.055 1151.67 523.978 1152.59 523.824C1153.53 523.687 1154.45 523.491 1155.36 523.234V518.897H1155.08C1154.75 519.051 1154.22 519.247 1153.49 519.487C1152.75 519.709 1151.99 519.82 1151.2 519.82C1150.09 519.82 1149.21 519.675 1148.56 519.384C1147.91 519.076 1147.44 518.623 1147.15 518.024C1146.81 517.34 1146.61 516.604 1146.56 515.817C1146.51 515.03 1146.48 513.909 1146.48 512.455V498.827H1155.36V494.823H1146.48V486.585H1141.66V494.823H1138.4V498.827H1141.66V514.713C1141.66 517.947 1142.39 520.317 1143.86 521.822Z" fill="white"/>
<path d="M1159.06 523.491H1163.88V494.823H1159.06V523.491Z" fill="white"/>
<path d="M1158.72 490.024H1164.22V485.019H1158.72V490.024Z" fill="white"/>
<path fill-rule="evenodd" clip-rule="evenodd" d="M1172.76 520.308C1175.29 522.875 1178.84 524.158 1183.41 524.158C1184.58 524.158 1185.53 524.089 1186.29 523.952C1187.06 523.816 1187.91 523.619 1188.85 523.362C1189.52 523.174 1190.27 522.917 1191.11 522.592C1191.95 522.25 1192.65 521.968 1193.22 521.745V516.484H1192.93C1192.54 516.809 1192.04 517.16 1191.45 517.536C1190.85 517.896 1190.11 518.272 1189.24 518.666C1188.42 519.042 1187.49 519.35 1186.47 519.589C1185.46 519.829 1184.42 519.949 1183.36 519.949C1180.4 519.949 1178.08 519.068 1176.41 517.305C1174.73 515.543 1173.89 512.994 1173.89 509.657H1193.76V507.04C1193.76 504.747 1193.48 502.813 1192.93 501.239C1192.39 499.648 1191.6 498.305 1190.57 497.21C1189.55 496.115 1188.35 495.311 1186.98 494.798C1185.61 494.284 1184.04 494.028 1182.26 494.028C1178.31 494.028 1175.11 495.413 1172.66 498.185C1170.21 500.94 1168.99 504.653 1168.99 509.324C1168.99 514.063 1170.25 517.725 1172.76 520.308ZM1188.6 502.6C1188.87 503.541 1189.02 504.661 1189.06 505.962H1173.89C1173.99 504.747 1174.23 503.686 1174.61 502.779C1174.99 501.855 1175.53 501.017 1176.25 500.264C1176.99 499.528 1177.8 498.972 1178.69 498.596C1179.6 498.202 1180.69 498.006 1181.98 498.006C1183.28 498.006 1184.36 498.194 1185.24 498.57C1186.12 498.947 1186.85 499.494 1187.42 500.213C1187.93 500.863 1188.32 501.659 1188.6 502.6Z" fill="white"/>
<path d="M1216.34 523.491H1221.17V504.884C1221.17 501.359 1220.37 498.673 1218.78 496.825C1217.19 494.96 1214.98 494.028 1212.16 494.028C1210.6 494.028 1209.12 494.37 1207.72 495.054C1206.31 495.739 1204.89 496.722 1203.46 498.006V494.823H1198.63V523.491H1203.46V502.086C1204.67 501.06 1205.91 500.23 1207.18 499.597C1208.46 498.947 1209.7 498.622 1210.9 498.622C1212.11 498.622 1213.07 498.801 1213.77 499.16C1214.48 499.503 1215.02 500.033 1215.42 500.752C1215.78 501.436 1216.02 502.351 1216.14 503.498C1216.27 504.627 1216.34 505.85 1216.34 507.168V523.491Z" fill="white"/>
<path d="M1230.46 521.822C1231.93 523.311 1233.98 524.055 1236.62 524.055C1237.4 524.055 1238.26 523.978 1239.18 523.824C1240.12 523.687 1241.05 523.491 1241.95 523.234V518.897H1241.67C1241.35 519.051 1240.82 519.247 1240.08 519.487C1239.34 519.709 1238.58 519.82 1237.8 519.82C1236.68 519.82 1235.8 519.675 1235.15 519.384C1234.5 519.076 1234.03 518.623 1233.74 518.024C1233.4 517.34 1233.2 516.604 1233.15 515.817C1233.1 515.03 1233.07 513.909 1233.07 512.455V498.827H1241.95V494.823H1233.07V486.585H1228.25V494.823H1224.99V498.827H1228.25V514.713C1228.25 517.947 1228.98 520.317 1230.46 521.822Z" fill="white"/>
<path d="M1271.29 489.793V523.491H1276.37V489.793H1289.2V485.276H1258.46V489.793H1271.29Z" fill="white"/>
<path d="M1307.6 500.007H1307.86V494.977C1307.55 494.926 1307.27 494.892 1307.01 494.875C1306.77 494.84 1306.41 494.823 1305.91 494.823C1304.68 494.823 1303.4 495.148 1302.09 495.798C1300.79 496.431 1299.25 497.526 1297.49 499.083V494.823H1292.67V523.491H1297.49V503.138C1298.64 502.026 1299.85 501.188 1301.14 500.623C1302.42 500.059 1303.71 499.776 1305.01 499.776C1305.58 499.776 1306.06 499.794 1306.45 499.828C1306.86 499.845 1307.24 499.905 1307.6 500.007Z" fill="white"/>
<path fill-rule="evenodd" clip-rule="evenodd" d="M1326.03 521.668C1326.7 521.138 1327.23 520.727 1327.62 520.436V523.491H1332.42V503.883C1332.42 502.086 1332.16 500.563 1331.65 499.314C1331.14 498.065 1330.36 497.047 1329.32 496.26C1328.24 495.456 1327.02 494.9 1325.67 494.592C1324.32 494.284 1322.66 494.13 1320.69 494.13C1319.07 494.13 1317.42 494.284 1315.77 494.592C1314.11 494.9 1312.83 495.182 1311.94 495.439V500.341H1312.22C1313.73 499.708 1315.23 499.229 1316.74 498.904C1318.25 498.562 1319.55 498.391 1320.67 498.391C1321.61 498.391 1322.52 498.459 1323.41 498.596C1324.3 498.716 1325.06 498.972 1325.67 499.366C1326.29 499.742 1326.77 500.281 1327.11 500.983C1327.45 501.667 1327.62 502.574 1327.62 503.703V504.627C1325.09 504.764 1322.73 504.978 1320.54 505.269C1318.35 505.542 1316.45 506.047 1314.84 506.783C1313.03 507.604 1311.7 508.716 1310.86 510.119C1310.02 511.505 1309.61 513.19 1309.61 515.175C1309.61 516.458 1309.84 517.682 1310.3 518.845C1310.76 519.992 1311.38 520.958 1312.15 521.745C1312.95 522.549 1313.88 523.174 1314.94 523.619C1316 524.064 1317.13 524.286 1318.31 524.286C1319.74 524.286 1320.86 524.166 1321.64 523.927C1322.45 523.687 1323.28 523.345 1324.13 522.9C1324.75 522.592 1325.38 522.182 1326.03 521.668ZM1319.02 509.657C1320.1 509.332 1321.51 509.084 1323.26 508.913C1325.02 508.725 1326.48 508.579 1327.62 508.477V516.433C1326.54 517.391 1325.39 518.204 1324.16 518.871C1322.93 519.521 1321.55 519.846 1320.03 519.846C1318.25 519.846 1316.89 519.427 1315.97 518.589C1315.05 517.75 1314.58 516.51 1314.58 514.867C1314.58 513.413 1315 512.284 1315.84 511.479C1316.68 510.658 1317.74 510.051 1319.02 509.657Z" fill="white"/>
<path d="M1345.2 523.234C1346.84 523.833 1348.65 524.132 1350.62 524.132C1351.64 524.132 1352.48 524.064 1353.13 523.927C1353.78 523.807 1354.52 523.627 1355.34 523.388C1355.92 523.234 1356.57 523.003 1357.29 522.695C1358.01 522.37 1358.61 522.096 1359.09 521.874V516.458H1358.8C1357.71 517.485 1356.45 518.323 1355.03 518.974C1353.61 519.624 1352.11 519.949 1350.54 519.949C1347.94 519.949 1345.9 519.008 1344.43 517.126C1342.98 515.227 1342.25 512.583 1342.25 509.195C1342.25 505.739 1343 503.07 1344.51 501.188C1346.03 499.289 1348.04 498.339 1350.54 498.339C1351.38 498.339 1352.25 498.468 1353.16 498.724C1354.07 498.981 1354.85 499.28 1355.52 499.622C1356.29 500.016 1356.94 500.401 1357.47 500.777C1358.02 501.154 1358.46 501.487 1358.8 501.778H1359.09V496.363C1357.94 495.781 1356.63 495.268 1355.16 494.823C1353.71 494.378 1352.19 494.156 1350.62 494.156C1348.68 494.156 1346.87 494.498 1345.18 495.182C1343.5 495.85 1342.1 496.808 1340.97 498.057C1339.84 499.306 1338.93 500.846 1338.25 502.677C1337.58 504.507 1337.25 506.68 1337.25 509.195C1337.25 511.728 1337.57 513.935 1338.22 515.817C1338.87 517.682 1339.79 519.23 1340.97 520.462C1342.15 521.694 1343.56 522.618 1345.2 523.234Z" fill="white"/>
<path d="M1380.93 523.491H1387.27L1373.9 506.809L1385.68 494.823H1379.67L1368.33 506.937V483.556H1363.5V523.491H1368.33V511.505L1370.23 509.657L1380.93 523.491Z" fill="white"/>
<path fill-rule="evenodd" clip-rule="evenodd" d="M1391.48 520.308C1394.01 522.875 1397.56 524.158 1402.13 524.158C1403.29 524.158 1404.25 524.089 1405 523.952C1405.77 523.816 1406.63 523.619 1407.57 523.362C1408.23 523.174 1408.99 522.917 1409.83 522.592C1410.66 522.25 1411.37 521.968 1411.93 521.745V516.484H1411.65C1411.25 516.809 1410.76 517.16 1410.16 517.536C1409.56 517.896 1408.82 518.272 1407.95 518.666C1407.13 519.042 1406.21 519.35 1405.18 519.589C1404.17 519.829 1403.14 519.949 1402.08 519.949C1399.12 519.949 1396.8 519.068 1395.12 517.305C1393.44 515.543 1392.6 512.994 1392.6 509.657H1412.47V507.04C1412.47 504.747 1412.2 502.813 1411.65 501.239C1411.1 499.648 1410.31 498.305 1409.29 497.21C1408.26 496.115 1407.06 495.311 1405.69 494.798C1404.33 494.284 1402.75 494.028 1400.97 494.028C1397.02 494.028 1393.82 495.413 1391.37 498.185C1388.93 500.94 1387.7 504.653 1387.7 509.324C1387.7 514.063 1388.96 517.725 1391.48 520.308ZM1407.31 502.6C1407.58 503.541 1407.74 504.661 1407.77 505.962H1392.6C1392.71 504.747 1392.95 503.686 1393.32 502.779C1393.7 501.855 1394.25 501.017 1394.97 500.264C1395.7 499.528 1396.51 498.972 1397.4 498.596C1398.31 498.202 1399.41 498.006 1400.69 498.006C1401.99 498.006 1403.08 498.194 1403.95 498.57C1404.84 498.947 1405.57 499.494 1406.13 500.213C1406.64 500.863 1407.04 501.659 1407.31 502.6Z" fill="white"/>
<path d="M1432.28 500.007H1432.54V494.977C1432.23 494.926 1431.95 494.892 1431.69 494.875C1431.45 494.84 1431.08 494.823 1430.59 494.823C1429.36 494.823 1428.08 495.148 1426.76 495.798C1425.46 496.431 1423.93 497.526 1422.17 499.083V494.823H1417.35V523.491H1422.17V503.138C1423.32 502.026 1424.53 501.188 1425.81 500.623C1427.1 500.059 1428.39 499.776 1429.69 499.776C1430.25 499.776 1430.73 499.794 1431.13 499.828C1431.54 499.845 1431.92 499.905 1432.28 500.007Z" fill="white"/>
</g>
<defs>
<filter id="filter0_d_4091_1993" x="0" y="0" width="1651.76" height="866.462" filterUnits="userSpaceOnUse" color-interpolation-filters="sRGB">
<feFlood flood-opacity="0" result="BackgroundImageFix"/>
<feColorMatrix in="SourceAlpha" type="matrix" values="0 0 0 0 0 0 0 0 0 0 0 0 0 0 0 0 0 0 127 0" result="hardAlpha"/>
<feMorphology radius="10" operator="dilate" in="SourceAlpha" result="effect1_dropShadow_4091_1993"/>
<feOffset dx="10" dy="20"/>
<feGaussianBlur stdDeviation="5"/>
<feComposite in2="hardAlpha" operator="out"/>
<feColorMatrix type="matrix" values="0 0 0 0 0 0 0 0 0 0 0 0 0 0 0 0 0 0 0.25 0"/>
<feBlend mode="normal" in2="BackgroundImageFix" result="effect1_dropShadow_4091_1993"/>
<feBlend mode="normal" in="SourceGraphic" in2="effect1_dropShadow_4091_1993" result="shape"/>
</filter>
</defs>
</svg>
